<mxfile>
    <diagram id="b4RBardiPLoGrMqbeJDh" name="Page-1">
        <mxGraphModel dx="1002" dy="1818" grid="1" gridSize="10" guides="1" tooltips="1" connect="1" arrows="1" fold="1" page="1" pageScale="1" pageWidth="827" pageHeight="1169" math="0" shadow="0">
            <root>
                <mxCell id="0"/>
                <mxCell id="1" parent="0"/>
                <mxCell id="14" value="" style="rounded=1;whiteSpace=wrap;html=1;" vertex="1" parent="1">
                    <mxGeometry x="10" width="700" height="300" as="geometry"/>
                </mxCell>
                <mxCell id="4" value="" style="shape=image;verticalLabelPosition=bottom;labelBackgroundColor=#ffffff;verticalAlign=top;aspect=fixed;imageAspect=0;image=data:image/png,iVBORw0KGgoAAAANSUhEUgAAAq4AAABLCAYAAACx6QUeAAAgAElEQVR4Ae1dz48dx3H2n+Z7cpF0SI4EExDwybmRIMI/QYAXizXJgyQDsSDEkp2Y3tVSQG6BYRvwag3RuSgWHMD0MgKcky/SqYOvu6u7qrp6puf9frv1gN3X09M/qr/pb+qbmp553wn+cQQcAUfAEXAEHAFHwBFwBI4Age8cgY1uoiPgCDgCjoAj4Ag4Ao6AIxBcuPokcAQcAUfAEXAEHAFHwBE4CgRcuB7FYXIjHQFHwBFwBBwBR8ARcARcuPoc2AwCV2fh3un1UFs3F0/Co4s3Q2XnCqGtk6u5Ur7fEXAE5hB488sQvvfLuVJj+9HWu1+OlfVSjoAjsE0E3oTzx0/C+c1EH1dnpk8+VF/twnXiWN72XZOT8uYyPBoUohGnBcI1BEkk2HHv/gPj7yxMa9LrcHJ/rsxtP4o+vtuEgBZ8P/9JCD//Sxoh0vHS8MsBgfmXEL73fi6/ACDeH2z57vv239wl6rsr9L3ATC/qCOwcgavTBxNBEvi07MO034RvNP2b5fPsPixffXU6LUZrHeZv4dcfX4aboHxnR7geqq924brz6T/e4TfffBuuf/dF+ORnL8LT5x/EP6SRh32rfTBhbcJMkWs2qjkgXG2BSuS7DieRUDQqRSzKjoQbs3/W5tKmJxyBcQT++m0In/xXCP/470nU/e2PQ/inT1Me9q3zEcL1yxC++2ltjYTr9adVzNa9MsUFKO3picmeQCXB/O5P4L7qp9cO8ntCl+d7JLZi6anNIbAdf1ntS8I1+8/Hl+H8VPqh7l1EUxTa/g0+UvitHECqIpTs0f6S8tl3EalMuHJbsJ8CPzw/hHDovtqFKzvOh5T80+s/h/d/9GH4welz8w/7UGadT0sG1lomDMuJSXtCSwI3AlgIUt0ibWsi2sRGDEkKXKovv2GnOAHI3b7lCKyEwH/+TwgQqlyI8fTfIyrKVd7CXrhwJaEaED39SQgQkNdIZzHLy/JuIGx74rAnOnl9nR4Wrkrg6naw3bPZKut5jsAoAlvzl1HcSf/W+JW5oI0ShWlMtn9r/Fau2/jqbhSXAkHohQQrfYfQRo2vwwkixKaNPfS1D7bHsk1f7cK1d2z2mA8SkmD9+KcvokDF1ST+sA95tH8d8TorQvUtjx4mN5fh5PGTcO/xk3AyuXYVE1yeBOpV6gIyqDYaoZz3NyeYnv2e7wgMIABBykXqd99T2yziuFi8IrrK6mOtKY9g4tY8hOy7n7JyLBpL5k+J1lgmi2CtrXlfsIOvdR0Wrsx+Phad7olqGoN/OwJLENiVv2xFX7Zyi8K19dFYGgchmpfIMWELf6eXDySbSbj2BGYwhOth+2oXrksYsoOyEKcUaf3Vb37b7RH7IF5RFnVW+TRXcbyRTsSVF6F0JMsFHs66rISincPfC4TrQAQXY3PhOgy+F5xBAEsAEE3VIqy3jbKrLBvQwhPbFGVFuty+fz+JWNqG+VHYTj0Qlde9RpsN0duDYFi4esS1B6HnbwmB7fvLVsAhUFIDLkn0ieCJ9k/d6KgM4lAb3G+REOW+mvs22q+/JdwkXGWu2PKIq4DDNxYi8Pn1F1GQIqo696HIK+qs8gEBiCzm90jElQQuXXUuIgC3eoFw9YgrB87TO0Dg49+Pi1YSs6iz9IPIJ0Uko4jFk/45koloK4QqrV9FWYqMoiz12/3mwvLL2s+cjcPC1SOuc1D6/g0jsEt/KSOuEINMeE75StMn2tFPLkrjrfa8BrUIV/K3EUfymTUCSwIWu2Fvz6/zcrEp08bewaJ+ab89lmR/xwblw7lYp1anvj3iOoXOHvaRGB1ZAkC3SEZErjWUQgZz58hbBSphsEaGXofVkKK03169Prq4lieAcpt/ggz6ira0XxPyBFDzPeUIrILA9w1h+M//EcJ//18Ib/4aAtJaMKLOog9bLgCBGm/fZ7EZRSzWrjIhS5HYRX2wwmiT3g5gLRWAQNZjgqhGWarHmotrcPUSBL4faV/jqhHx7XUQ2Lq/7EVLuQ9ivs8ciykKbf8m/BYTqZavLkK6lOtFVq181X9j42H7aheu5kzbX+YPn38QI64jt/9RBssF8MaB4U+PiOoKqLlSM64oC3HQuSCvIsWQcQuu4vhJo9O2OAF0yni2IzCKwN/8Syvi/vevtTYErBZ5eIhryQdCMj6E9WWKqmpxCNFHEdaeeFzS32jZ4Ygrj+h2Gnfh2gHGs1dCYOv+sliVhZzhB6Pve/wkPGI+VC8lENuxTdtH9vxWFK54joS9BYACRbUOCyRlu2O9GBzCQ1uqT/hs8qWNcC0DNxL799UbE66vnr0T3no2c2/s1bPw1tuPwsuvORa/D0/ffic8fcXzdPrr8PLhO+Ehr/j1Z+Eha+vrl4/CWw8/C6Lp0kyqP2tfKb+/xCpERJ3VPpjoxnvjhAi1W4ZoFWTUdXAVSCSzm1C5C8jAThCNwGb7lt5+UAb5piNQEJgTrn8whCvqDH/yQ1PX9OJ+Fn3Vglhss6guRKHYN3XrfkBkku3DwnWqP7aPlkJQ+/7tCKyKwK78JQQgfM3JKb2oP/nO6n8m3icO38j80lxa+i3WD4lm+FYSnOItO61wTXc/kZ/eNiCCTXE5QX4LwbaE6+C45ZjnZ8O4cI1C8Z3w1tvsjwnFeeGaBGoUj1HAPgtJq+Z83i4TpGkIXLjq8s/CS4hWVl8IXDSgBXPcZuOgunPCex7PtUts/dZHsTARoopPOekjUYkopQ4Sul7eqYUrsqN45a/nyFetbDLX/keFqzAmbSwinVHfsxyBGQR6SwUgWBF5XXupQF5zKiKS7NVX0Tz2XleU4w9mYT/yKCI7ORzjzQLWUgFqY1S4UvnyPfJDCaWwJxyB5QjsxF/mIMxJ/gGCm4sz+StUlu9jQ6kRUZapfwAg7xJlo+BN/hP50VcK0arfIiB9eF0ji/zsh1Hf8utFXJO/PmxfPS5cCXMhOnMkk4Sf+q5R1FwuC90ocmNZiNdtR1xT+1HMRvH9LLwSY0gDmxfeBMB2v2mxOX5oYO5DpF38cFYkIiKt7eSsV4NPwskpXnGFX9mgTxKt6eoopWt5vQibE4CuRuWtikLG2LwWrpWEV6dUHwWpHCNjfmFyvWqrdcly/3YE1kFgVw9nCeHKoq60bAAC8+cdgbqucKU+dDtauGLtK8ryNbLAlsrRw2PIE+PJbz6gftY5Hl7XEQAC2/eXyc/Bt9Ro5Ztwfsr8ohauatt+5kP6QjqaQrhSZvZvNciTdzQBG/KNdX9aTiB9JTWLvrj/lu1L+w7NV68pXAkCBDX5rXwlRnWEkwnYhy8/m1wqEJcAcEGMulb0l8qIqCkXzDlS+/BZePUSSxYo4pvGcCjCFetW38s/PPDrgddhoezIethypEAqIUZpT0fsRZFLIpTKGt+KrEaJJDrZ8oF5MqBfTkZOQJ5OvSWBS+Xzi5VtQzzXEViEAF5t9Xf/On4rHmVXeR0WF3rxgaz8eisShdgvfk3rl3UYWnDWPSrVibiSoNTtUN/UCglTnk95KMPT2CaBS+XxdgT/OAKbQGDr/pJFKKtwVZZr3ycEpRSAtaadPyxcdZ+xYfJ92OD+kafr67uEUBU2o76079B89YaEK7+Vj0FDJOq1rBFZ458dtZW3+1nUFC2o9a3UaCM+G4GbbdJC2hS91Oruv+ltAXjwCpHX169vojgFSZFG3iZ+gECODJObRzbl3tktk0i6FsggI7OVPJx0qV48UVxc5h81UOQTxGT9sBNN7yTASnvSERhGQPwAwcSPD2Cd6eIfIMhWFOHaEZdYCgBhGJcE4NVY7L2tUdSytaST613VGtclSwWioMZa3CyatVDV23FobNlDGeMw8l7QEegjsCt/OSpchd9pBCGNQwpDyhV1KVNHXHu+tpff85Ws/faXsw7bV29IuKoIayMsbXHaf5iKI0prVNOa1HrL31ijCgEqIq65nSxgixg+4KUCNHKQkSKvJFL5N/ahzCofEJDfIphNmxFa1XOXNLycJOv0VRxdGfajvahv2e5LBjjmnt4kAhCk1oNaJBIRaV1VtMLOKOryK68oAhrykoGyjdvyWaDyPNRdZ40rtaXboUhpwTHbo9fY0n7UJzz4N38oC+KW+qN6/u0IrIrANv0l2dQVrjE6yX0qBYCmgkHcF3KRaPs76SvJIvKR1Df1y/bHpA766P2pnRpEwn5uXwiy/zbIFN+scN+2Ha1t2ldvRrhqoaq3g47IhlDfAqBEr4FpjKS+jaUIeVnBS/lGAarSRFzjjiyan/0+9QlhewTCFaYjwoo1PFjLiqcn8Yc08hYtDyCA/NsRcATWRgBLALDm9R/+LQk0CFk8vIW8VZYHrG2QN+AIOALuL+/QHNiMcNVCsCNc65P/+U0Aca3rjHBFWw+fhaf8dVix/ZGIqxXpPeyHs+7Q3POhOgKOgCPgCDgCjoAjsAiBDQjXGtEsPUdhyR9+mo+4VlELQVrXxyIy+/RVW5/6sqOseS9by5recJDaefoMD2cZwtdaZkAd+bcj4Ag4Ao6AI+AIOAKOwF4RWF24UlQ1PqGvfkBAR2DZUgG67R+F40jENcLDhCsTo6b47K1z5TA39qW3IpjrY3k9TzsCjoAj4Ag4Ao6AI+AI7A2BhcI1CcgkGOs7WBvB1wjD/FaAh/XXrabWuLZRVCZcOVSxnxqd5btSOkdY45rYvDzhiNa4tuPxHEfAEXAEHAFHwBFwBO4uAuPCNUc6mx8VUO9DBZRVlGZgDYFZy+g1rpZIbfNiffqp2Gxb85YCigp/jT4ehZev8kNdB/we17s7FX3kjoAj4Ag4Ao6AI+AITCMwLlx1O0UU0o4kLun2fRW4+b2r+UcH0jte0/rS9HoqWS/V11FUJlxJpFrrUaNN7JVYKBv7TfWjTVTGWuMa31zwNQ3Ivx0BR8ARcAQcAUfAEXAEDgiB1YXrAQ3CTXEEHAFHwBFwBBwBR8ARuP0IuHC9/cfYR+gIOAKOgCPgCDgCjsCtQMCF6604jD4IR8ARcAQcAUfAEXAEbj8CLlxv/zH2EToCjoAj4Ag4Ao6AI3ArEHDheisO43ENQv7u8Xq2o62Tq/Xa8NqOgCMQQv+32Jejc3Xa/93y5a15DUfAETgOBK7Dyf2zsG2X7ML1OGbDhq18E84f58l1cxkePb4MNxM9dJ0Q6t5/EE6u0N6DcO++9WdNYpSvjg3ic7wuN3Q3JOE9etoRuL0ISD5ByJq8nDlfhIFzyu3F0EfmCNw+BBYFiK7Owr3T6wwCzin2eeTRxZuVgXLhujJ026/4zTffhuvffRE++dmL8PT5B/EPaeRh38ofTKzOZLp3PwtKNvm4cBUiszgwJoSFUTJf1C39k4C9DielPTQinWhttk8EPSaPxFbUPLU5BIiXH370SfjB6fPN8TKkqCefx72TuyUqzbIm14lzCROrrXsUNYEILU4ohK4ozRex3HY7Lfve3FHxlu46AsTLjfvLDKzpvzg3jAPQcEv4OF6h5+9QRvs8KxhEbU21gzJtkKn6Sd0PcVXnSyGa6nfKZHy08MW2eb6iYcx8u3CdAWhfu//0+s/h/R99GB0jnKP+wz6UWf6R0c6uI+oI19If25/IYJFJCtdS10wsEK5d8teGNVHqHk85Aqsj8Iev/hiFquYjba/HywcsUpFshOOrjiULR1z0NRzIjkPnR+GquJnFrGi3B8kS4TrjxNEFvwjuden5jsBSBLbnL2FJh1vlQpMEHrOaLuQ0J5AvOMoFn+JpbC7t5yIvCWhddq4dNg5tEzPbSvY5iz61HVYLIWh/7MLVxumoc0FCcoQf//RFFKi4msQf9iGP9i8Wr9lp2dGQfCUFYjFhak5ctn9cuHJypb4qIRcI1xKtlVd+ekxDjvmoZ4obv0sEOC9fnL8MELGb5eWcE8j86TqeHE3h+yPf23ZjJIjKkZNlvCrcWSJcWX3NxbptOPldHkTv69YhwHm5cX9JEUriioFeFJJcjGY+FQ4ZdVJW4nP0gR2eNm3ntsBf4Tvv5+1OO6gmON+1Se6QAhP2En9VAAzX1M2Sv3rewT6Oh2xX9jmy5RHXEZR2WAaOkCKtv/rNb7s9Yx/EK8qizsqf5gowt8SEaRWu2TEqB/Xo4nrhGlfL2gXClZ8krKYyiThROsU82xEYQmDbvEwn/XqiN42acEqlfHSa5FzgrbAsqG039jfAo3hHhjvt3vkC+bxcMUgm6rlE5vuWI7AKAtvmZeIP45NpZBKg5G9WEYg9nvbaivy1+Nbhe4oaz4wj1pXBIBpTPA9AtF6l51rqGlYTkCYT9pa2sn+uwrspPpvhwnUWot0W+Pz6iyhIceU496HIK+os+SQnKSdojYhkJ4dJnIlhOZvUxgwRlhiF2zHCkeJk0DrccttGiedqfx0XJ8oiU7ywI6AQ2Dovo+DkURRlwHDERDrRpQ6x6VUL0inhOsDJsoa+6cgzHIHlCGybl9HPCb9k2ZgCOkmIKf5Zxa28juCMwtXov2tXp53eecAyhecVraBtYCJ3RICiHe6PsT1Sj9vC0y5cORoHkCYxOrIEgG6RjIhcPjQxiYQjAgGzWMyONAlCLSDfxLVq9x4/mYiyJAKjfp2gNY+EZi9ae3KFsrpfjEILXD6ymhZjrNmecgRWQmAXvEzOBRde1gUhd45TQ1DlDEcGbog+BNfThV/iX70ITHzNERftxGAO2rAiQMpU6yJYFfFNR2AYgW3zshfx1AaWcpFLFn91DbVt8DSWyNysPpTuoljr3Glf6zcj58FbxXXRbjGp9dPkr/k3F6Koms4r/JxxFq6YwC11H1+GKxeuBe1bkfjh8w9ixHXk9j/KYLkA3jiw8gcTuTgiJlynGry6DOcXKSIbHRHdPlARF5rYNzcjr73QgtSF69Qh8H27RWB3vEzCM53kuQNSgrQ7fFWu4zimXn8nmsb5gQtScb5gJXU5tosnXbhyNDy9LgLb5mURpDOGlnLggXnhOdeAvaQn1VJCEv4avC5+m7XdEcBFVIo6qd1WvGpfzNrPSYyX/Hu7t81B/7w8ttt+23q9HI+49pDZU/4qRESd4Y/lyJTgLFdGPL84rzfh/JQ9vHVzGc7F24YHxW9jsCbLhHDldk2kOVGa7jzDEViAwNZ52dhCArZGb4pzbMryjOSMytzvODJeYzKtBemUcJ3gYj2n1PFM9us7HYEBBLbNyyj4hNizjOIXi4p/VnErbyFPo13FJ7MGO+3E8tYdTLN8GkPlLI+i1nQ5x7Due0n0z8tj24VrD60jzN/2rQ8TEj55kRZElYKyTECUs4gTn8LkkSLeY0uIOnllP2kta68d3ma6PVLbUft80xHYAAJ74aVa19p1Pnx8MeLDeMO5zcvxdKxTHRIcVnEyo8KVt5fT5Vxh7PMsR2ATCGydlyP8ya/LSpzJF5ymb5wY8VA/tT4uYk2f12sH+cKv57bM8toX134pZUVc0/mJn0fqeUifC7Bt2k8dzHx7xHUGoF3vpsXmeIny3IdIu/ThLGo3RnAQJVEkK5OymdQ52ooGsI/qxXJ8wsp0naAQrnIyi32CWDVye3Va69Q1rthfozeSGLUujdW/HYF1ENglL7md0RkQz7KDrJzhJZE2nGbDYV0nr09l3Cv8R1EtXMsac3YuEOUkx+XSgHmHaFjnWY5AF4Ht89LglLIm+lHGn7RWvfomVdzeHOEp1dQXp5SP7147sY5hE8pz22NbbYDJir6Wi9vcvxSj8jwg/TMLNt1chpMVfkHLhSs/6AeQxrrV9/IPD/x64HVYKDuyHrYMLU7gJCzTT7VyUUil5skqhCtVi99TorGdzNUJa6eGdkA0nk956IinkwFJ4FL563BSHL4w0DccgcUIbJuXUqBm8zJXhYMg/jZzOzsb7YR6jowjgDZZvVnhiotP1Ck2cF7zNDrJApfKr+iouLmedgQIgW3zMvXT4RZdKBprWiOfxYPJ2WJTKE4IznKhmOtn/le/SUiw9llwiO9tBHZuS5xfYgXyoby2TItzRN61VLgi8NUIWtlNd8uFaxea/e2gtwXgwStEXl+/vikvOkcaeSv/AIEYFonMTExFtDjROyRYXbhORGOZ84SZkRwXdEWmharezgMjB5mfcmxJKQDwDUdgGAHOy19cfBa+Yj9AsBFeRpHJ+WFESLK1iZu8LLu9z0c0KlzV+tTCG8an1Gzm3cVZXk6ghareJoPPyq1BGYXlxnraEViOAOflNv2lxbly19E0u/rVErEsF3uoYOwnHnJfKM4L1jlhsJ3sU4stfEmQsH+iPbLPqEtivbZfg2KNQMV55fFlOBd3U4URkxsuXCfh2d9OkJEiryRS+Tf2ocx6H5qgFhmo5VSmucIDmSIJqQ3pROvkRT5NYJSldHp9Rm3XuMqLhO3b1hIl2VCcbrwirv3RiPzbEVgVAXCOHgjhfKT0Zni5qnUr1stOhN40EC8Y6YHLRrjSa2/6vDIdvIhKGVxf0XSv5ggAgd34y4p1muN9DtSSR5QC15kwTT5c+V8hoqW/hT8W/lz5+uqXgQkugNtliqNouXAdRWoP5XAbBGt4sJYVzhJ/SCNv0fKAPdjuXToCtxUB4uWPP/o43vlwXt7WI+3jOiYEiJe78ZdZePHI6DGBdeS2unA98gPo5jsCjoAj4Ag4Ao7ArhGgu40qKrlrM+5gfy5c7+BB9yE7Ao6AI+AIOAKOgCNwjAi4cD3Go+Y2OwKOgCPgCDgCjoAjcAcRcOF6Bw+6D9kRcAQcAUfAEXAEHIFjRMCF6zEeNbfZEXAEHAFHwBFwBByBO4iAC9c7eNB9yI6AI+AIOAKOgCPgCBwjAi5cj/Gouc2OgCPgCDgCjoAj4AjcQQRcuN7Bg+5DdgQcAUfAEXAEHAFH4BgRcOF6jEfNbXYEHAFHwBFwBBwBR+AOIuDC9Q4edB+yI+AIOAKOgCPgCDgCx4iAC9djPGq31mb8jN66v0JCv2byIMjfRj5c0MRvw69p5tXpuvitaYBXv6MIgHe37Lfb7+iR9GEfOgKb5Np1ODnCn6114Xroc/RO2dcKV4i6e/eNP062qzNWhjvP/HvSTX0l7kR9o6+mPhPFi+uqvuPxlSeioTFb8+LmMjziuFhlPO9IEKgXYJj/Yxdhch6JgWJurCAsby6eDPYdQgAXTq9zt9J+zuFHF2+Eab7hCDgCCxHYENfA72PkowvXhfPl+IsnMScmqym+LIGVRm8JK9FeA5IhIIuD44Ut4WrZoa4Sr85mycejmk1UUpwEmD1w9qadrMxA36x04H1bON4jcaH77onSKEhGxLaFI7fM04eHQObD1ajo7AnXlH9y+qDDEy0yaa7ofDnPkpjulMm80cL3WB3l4c0Nt2j3CCQeXXU6ludz4hAVNnxgDIiMBFrownUzXAMH+YVkN33AQRAXrjSvDvD7m2++Dde/+yJ88rMX4enzD+If0sjDvtU+iUBCaEbhygmUoyc60kMiqRFzRErVBgzMolj0R/nUDrUrIpuJ+Fzo1fFOCVfYou2QeU2bHeHalKsG1FRHuGqHTRWG2kRhYEL40LZ1ItHlqCP1PdyvquebLQLEyw8/+iT84PT5hnip+0mcKpHWyBHtDHUdw7GqenCuDRd1M3m7P2eMfjptaB64cO0A5dlrI0C83Ky/hFlcMGrfksyOopWdn5M45HxNfJ7m3kiZPkyjXNPl7BaVj7UL7S3XheveoJ/u+E+v/xze/9GH0THCOeo/7EOZ5R+DHJZwhebEbfoinhJ5p4gny5No5eSdsxa2yfK281Sk0uLx5jKc8NuRQtyhD3XyYcI1nXBkZElfkRYxgeHovvMQeycHMZ4oKmRfpW1hcxay7MRYkDTa0PambYlrqe+JRQj84as/RqGq+Ujbq/OSmZGPaZkLZVfiYJufOM2PO8pMz2XFgdJHSqBu5Tr6pfnTcrTtp7ateSDbVZ36piOwIgLb85fM73X8ZAwyFH7QADIni/9M25VTVI5/z5fZBNfaNqQPKucRy99wc/eYduG6R/B7XYOE5Ag//umLKFBxNYk/7EMe7V8uXg1ydAgZJ3ievGmyV4dk2h4dLndw49Gd1B5so/opRwi90umUcE0nmnLLPQvw6uzRhxqHEq5TJxfgUNuqwjWKdhExbk8GaNceTxlYTSwRruXkWKvr1HC/uqJvFwQ4L1+cvwwQsZvjJbpJ3Lw34zDSXFNzGNUj/1J+cxFZRkEJJkYj/+V8LXOcOB2XK/ALWWpn+lvzBdtT/Jpuzfc6Ai0CnJeb95esvwE/yUqnC8fCZcPv8sIxPVKmqVQyRrmmy5UGREL5WLFv/xsuXPd/DIQFcIQUaf3Vb34r9vEN7IN4RVnUGf8Y5OgQkjs/nu73lURjdHrk8G76pds9sG1V4Xodzh/D+ab6RE5816gxejQIqYRrueLsCNHi1NFcJ+LaE4q9/AaLJcK1Y6cch8S16c8zJhHYOi8jB5+E8wv+oKEUk/x4nlwxrpHlsY16sZgEbm4DFzeRk9Tm9HyIvMG8Ko43d5L7gC0jApR4SCZie6QelfdvR2AKga3zknce5357wdj1jaK84Xd52zE9UqapVDJGuVa4Pec3NPdLT/tPuHDd/zEQFnx+/UUUpLhynPtQ5BV1xj8GOQTBUktpcpNzM+qYHbJyRptmFZGJ+tV5QyDaQk+KT2kraxA2ZPJxsjaOE+Vy1BLlmv2sSeyfF64JB1EutyHGI4REEhQkSLhIiWIcES/rRKIFLrOVJ0W/fIenhxDYPi97ZkCgts7SKp2E6lk4z3O0HHOaI/Qd70IQt3lLSQzLuUdCt37rec25leqehavI/1on5j++DFcz/OLWeNoRmENgp7zs+DTwzvQZonzyCZJbmtdWGXnxuAmuNT7MBFn6WLPIHjNduO4RfKtrEqMjSwDoFsmIyK19JXIIonWcTA2WGnVqgyzFygnSsiLdJHOaTKAV5yvqbZhULGoKUgtsRL9p3aBw3KwuFY0nl9PruEZYt2WPh2qybyYyYsxGDfUAAAW8SURBVC62GS6lpC5XdsjEcL+ymm9lBLbPyx7Ug8I1zoOzLHKvw0mcf1mc0hyh7ynhas0xZhqctJj/bJ+V1E5yjl9WG57nCPQQ2CkvOz5tTLi2I0gXmvwCkvnPtvhszijXdDm74Q37WLuTlXNduK4M3XYq/vD5BzHiOnL7H2WwXABvHBj/GOToEJK3GUk2u5Yyic/o2OAkmwXrvEWWjv2DwLCNE3ks4oqWQEZ5NauiPey2SON4mfgcaUfUZ3XjiBSWsT2G27CAZCIjtottS1REnPtjrZhIXBn6nhxAYPu87BkxJlzTvJJlk2PMc2NoqUDib50z9rwS879nds7XThLb+mJupgnf7Qh0EdgpL9W5nYzq+sZOeapHa9orHwzfXAvPpka5Fn0S84ddvlv+ZtaK3RRw4bobnId7WYWIqDP+McgxS7AsDOcmshCryQlWUo5YuJ5w1Q5VExkW4CQzUo6snXW0TLimE4K+/ZPWwdJSBCFcDdFZbMM+Jnjj+sQ5/LPR1rhpPP69GgLb52W2K3LRFozcwZR5Equ9Ceenl+EmvrbHmH/DQ56PsvT4w23jD0bquTjLp2FbvaAjEMLOeAmwO34ynveNc3Mvnx83KXoN38wLmwGayvfVuYZ+azuqy4PcdOF6YIdl+7c+DHJ0CCmhmROiqV0SaKgbiTu4Pi/1hTZkZFAIvWJQ62BTX/MOHw5WOn0jqqvEaBLfrW3RnFg2PRg2JdLppCLGA3HKTnhCFGjhWh4qI5GSwSjldLSN49jiVaD0xBAC2+dlzwx5XHulUn5bFvNOzsu2TG0T++Y5pPkj+5Dt07wvfRC39CvrSgFPOALjCOyUlz0/aeYbfrYZli6jt5sK0adWPq/GtcJJ2F2CI8pHEE9bEw4ix4XrQRyGagQtNsdLlOc+RNptPJxl9g2RBMdWJjuVIofXXrXFK0pDLII8bTutOKT6MqIjF6zDikJGMqmTJ8RhLIs+q93aLmzXE0U6sQjHvZDgawlXXAQUoQrj+YmLp7EvC1wq70KBzYzlye3zsmeTPq69cshXZTNf6/xNPOHbsjXlvOTOuNXyR7cpbWh4mZ1lk2/05VmOwBwCO+WlKVBhYfIL9CAwcqIf4UEbcJEFKUodXia30+fnBrjGxSpPR6PT+8+JmzcXZ+G8Pugydyh2ut+F607hnu8M61bfyz888OuB12Gh7Mh62NpzIpkgR5eQtVZNZZKqyIxorxZOqexAufi0y6NtHik0oqGxxdbBphPFfLSoibiSsMvLCLRdaFfnCecdsRvrN42fjc/ApYhiZlcCMWNzcZYjxlIgNKKFjgET1kI0037/HkJg+7zsmaGPc68c8nnZyqXIDThNzKn8ZD+9Nk62hvrzc7nM0Vy55Z68EBTlsw3np7WMtMG3HIFxBLbPywlOmEKU+GPMb+0rmgCQ7VvhN8gHrcU1LVT1doa9+onWz44fme2WdOG6XXxXap3eFoAHrxB5ff36przoHGnkrf4DBCuZ1KmUiSYI3Ck6mc0Iq9qqJOINtIQCoYWD5MVZWojOTlS2Xg3jJMSEJmunJJkwLHkTCTGe7MTpolbY1ghX4ype9YP6/OKgEcpluYGq6JtDCHBe/uLis/AV+wGCtXmJ4z0gGuXx1XOThGsVrWVgsX3uTBmHzL5V29rpsrso4B45Vime05yVvMxcb5x2sdQTjsAiBDgvD9tfLhqWWXizXOuIcu6DF/o30+gtZLpw3QKom2gSZKTIK4lU/o19KLP/T5787oj2fyjcgq0jAM7RAyGcj5Q+HF5uHQrvwBE4GASOx18eDGRHbYgL1wM+fLgNgjU8WMsKZ4k/pJG3bHnAlgdZIjY8orPlPr15R2BPCBAvf/zRx/HOx8Hyck/4eLeOwD4QIF4evL/cBzi3rE8XrrfsgPpwHAFHwBFwBBwBR8ARuK0IuHC9rUfWx+UIOAKOgCPgCDgCjsAtQ+D/AZCYWaWcGrqZAAAAAElFTkSuQmCC;" parent="1" vertex="1">
                    <mxGeometry x="30" y="40" width="457.33" height="50" as="geometry"/>
                </mxCell>
                <mxCell id="5" value="" style="shape=image;verticalLabelPosition=bottom;labelBackgroundColor=#ffffff;verticalAlign=top;aspect=fixed;imageAspect=0;image=data:image/png,iVBORw0KGgoAAAANSUhEUgAAA4oAAAE+CAYAAADLSe6yAAAgAElEQVR4Ae3dCZhcZZkv8HgFuTP3zp07DigJW1gMi4zEyCpLgAiKIAYQmUGBQQQXlgjjjIw4CHpFUJAAEWe40Yks7qNmRr0hCEFWIUICCWtiDGEJYYsBsna63/ucU3WqT1VXJx3wJPUlv36eeqrq1KnvvOf3VddX//5OnR4UEbF8+fLo6uqKnp6e7K4fAgQIECBAgAABAgQIrDOB7u7u2G67T8boMb+NEft+J3Yf/Yt451G/jhHvuDiuuPT6+P4Nk+La634e3/3ur+J7198aEyZMjO9//8a46uK74/KvXBdfvXhS/GTChDjwnefGqNG/iqPOvD1GHf/j2HTnz8STTz4Zr7zySmTbWN1Plo9e/O1vY8oWW8RtO+8cLz33XCxZsiRWrlzZ9qnZ+otmzozbdtopbt9ll1gwbVq+fpa1Ov0nqz2rM8uGr776agzKChYUO73b1EeAAAECBAgQIEBgwxFYtmxZbLv1p+P4C34fIw74dux+/P+LfU69N/bd59KYPGlyTJt2b/xu2h1x3/33xX33PxD3P3BvTL3vjnj37v8cO+15Vex75A3x4LT74sj3fjkOPe3G+NCXfhcf+9Kj8f7Tboqttz8zZs+enYfFVYlmwemlqVNjylZbxdMXXRiPfvzkmDJ8ePzh8cfbBs08VN55Z9w6dGjMPf/zMffz58aUYcPi8cmTY9GiRR0/MScorurV4DECBAgQIECAAAECBNa5QBashm7z6Tj6cw/Hbu++Jnb/u1/Gu0+bGrvvdUnc9ps74/77fhdT7/9t3Dv1d3Hv1Glx9z13xr333BP7H/CN2POTD8V7Tr8rHnx4Rhx9+FdjvxMmx/vPmxofOOfuOP4Ls2LEyKvjpptuymcW+9vRLDQtvO++PPTNOv/zsfLmKdH141/Fox89KW7eddeYNXNmPutWzEpm6z/7i1/ELUOGxFMXXBCvTroxum75TTzx2XPj5m22iQd//vP44x//2NFhUVDs79VgOQECBAgQIECAAAECHSHwwgsvxLZDx8QRZ8+M3fa6JvY4/lcx4mN3xd4jx8Z90x6Mhx98MB6Y8UDMeOjhmP7AQzHjoQfiwekPx777j423n3ZrvOesG+MPc2bGSR+4PPb9wG/isM/OjEPG3BVHfPaxGH7QhLjmmmti+vTpbfe1p7s7Xpk9O34zbFg8ddZZsfT7P4hXr/9eLPveD6Lr36+Lxz90bB7+pn/zm/lM4YoVK+LJG26IW97ylnjuC+dHXPuDWHrD9+Ol718XXddfF099akz8esiQeOCHP4yFCxd2bFgUFNu+HCwkQIAAAQIECBAgQKBTBJ577rkYuu3Z8d4zHohdRnwzD4p/c/Lt8cG//UHM/sMTMW/OH2L2nDnxhyfmxdwnno7Zcx6PObOfjgNHfjt2O2l6jPrEHfHSS8/Hx4+9JvY+YnIcePq9MfJTd8WoM6bHTvt9My666KK444472u5uFhSz7yHe/cEPxuNHHhlx2bh49aqrYtGVl8XycV+Ppf96Zbzw2X+OmYccEvecf37MuPjieOh974uFYz4bMfaK6Lriylgy9vJY9q0rY9mV34hXxl0ZT3/itLh58OCYee+9jbDYduPrcKGguA7xbZoAAQIECBAgQIAAgdULZEFxq63HxMjT7o+37fbN2Oejk2PEKXfFx/9hSix4aWHMf3pePPPcczFv/vx48pn58czzz8a8eS/EPvtcGe/4yN0x8pM3x5Ke5XHSCdfEsPf+KPb+5B2x38duj4NOnxrb731pXHDBBTFlypS2hWSB6eWXX44Z99wTN+68c8w9enTEF8+P7i+dH0su+Fys/JfzYsX5X4gXzj4rZh3x/ph1xBGx+DNjouf8L8bS88+LV7/0+Vj+xX+OOP8L0fPFC+KFMafFtL33iH/91KfixhtvjHnz5kX2HcxO+xEUO61H1EOAAAECBAgQIECAQJNALSieHbudcm8M2/+GGD7qx7H/yQ/E+/7p3pj6zLKI5a/Giq4/xtKuF2Jp10uxZPnLsXRZV9zwg1/EtbfOiZ/eMSsWzH0mjjjy4tjx/TfG8FPuiL1OvCP2OvXe2G7PK1YbFLOzfj7yyCPxo7Fj48bBg2P+hz8YXWeeGt1jzoyVZ34y4qxPxMrPfCJW/sMnI87+ZMQZp0acdVasGHNmdP/jmbHyM6dF9xmnxOKzPh6PHjIqLth77/jc5z4XP/rRj+Lxxx+PxYsXN+1vJ9wRFDuhF9RAgAABAgQIECBAgEC/ArWgeE7s8tG7YsQxk2Lo3uNi6PBvxfa7XRWjDro4PjX6yvj7D14VJ4weGyd88Btxwugr4uRjrokz/vbf49PHfytOOfEnMfrgsbHHfjfEiBOmxU4n3hLvOm5q7PzRe2LL3VcfFLMZv6eeeipuueWW+PanPhXTd9kxln3oiFh28t9G98l/F90fOy5WnHJcLP3YsbHi5A/HypM/HN0nfySWfOSYWHHSUdFz0jGx7CPHxKMH7R8X77JLfPSjH40vf/nL8ctf/jLmzp1rRrHfnvcAAQIECBAgQIAAAQIE+hEoguIOH7otdvzbaTH4wB/HkF3/b2y283fjTTtcGRsPHRubDL0mNtn23+JN234rNtn26th426tik22ujI22GReDtr823rjTd2KzPX8af7HXtfHW93wndj/6ntjh+OkxZI9vrXJGMSspO5tpNqs4a9as+K//+q+YcPjh8fDf7BTLjz44Vn7oPbH8mPfE8mMPiRXHHRpdHz40Vhx7SHSNPijiQ6Ni5egDovuoQ+Ox/feNb+2wQxz34Q/ns4nXX399TJs2LV588cX8hDb97Po6W2xGcZ3R2zABAgQIECBAgAABAgMRyILilludE9scdWcM3e36OODdF8XYb/w6vv6Nm+OrV9wUX7tsSnzjsjvisktvr11fdmtc9o0pcfnYW+LrX58SX7/89rjsiptj3NdujasvuT2OPf5bsemwS2PY8dPjr9/xzdUGxazGlStX5v/SYubMmfHDH/4wfvKOd8T8YVvEshGDY+W7hkTssVX0jNgiut85JL/fPXzLWPGOLeOP7xoazx6yf9yw1VbxoaOPjnPOOSe+/e1vxz333BMLFizI/4d9Fso67UdQ7LQeUQ8BAgQIECBAgAABAk0CWVAcssU5seUH7ok3b/v5mH7P7IiVyyOWvRKx/MWIpc9FLHk+/65iLFsSsWxxxPJXIpYtjHjljxGLX4xYvjBi6cLo6VoUz//x5TjwwItis1H/GZvues2AgmJWUFdXV2T/qmPq1Klx47Bh8cpuW0XPkEHRs/WgiKFviK6tBsWyrQfFiq0HRfdWG8WyIRvHq+8YHA/stkt8Zr/94vTTT4+rr746P8PqM888kx9y2okhMdtXQbHpJegOAQIECBAgQIAAAQKdJpAFxc2HnBObHf7b2HKHC2PZ9LlxwFFnvuZLTH0wRo++JP7q4P+Mv97pXwccFLPwlH1fccbVV8eMXd8WXcM2iZXbvSF6dtgoYutB0bXTG2P5298YK7bfKLq33yhWvm2TWDb0jTF/z23jzh23i8tPPTU/dHXOnDn5v9zo1JCY9b+g2Gm/BeohQIAAAQIECBAgQKBJIAuKmw35TPyP994W22x3Ybzw8GN5SLzviUdiTS9ZwIypM+K4I/8tBu0zMd6848AOPc0KysLTvO99L27efPNYsNNfROz4huh6+5/Hq2/bOOLtG0ds998idtg4und8U3TvsnH0ZJcdN4rlb9sont1/17h75x3jpiuuiCeffLJjDzkt4AXFQsI1AQIECBAgQIAAAQIdKZAFxU03HxObHDwltnjbxfHi9DmveTYxD4p33hfHZkFxr5/F/37bVQOaUcyC06yvfCUeetfO8dIu/ytW7vVn0bPnX8XyPd8aSw/4q1ixz8YRe/x59Iz4i+jafZNYvtebYtk7/3v07PmXEe/6s1gy/C9i/kHvirvevlP87rrr4qWXXsoPZc3a7cQfQbETe0VNBAgQIECAAAECBAg0BLKg+Nebnx0bj5wSQ7a+KF6cvWCNZxLLM48x75k49rBvxqDd/yP+codxqw2KPd3dMeP00+OR/feMl0ftEj0HDonuA7eIlYftGivfMyx63vPWWD7qzbFo/63i2T2GRveot8bK974llh+2TSw+aIvoOvAt0TNqSCzeb5uYf8R+cfff7Bz3X399R4dFQbHx8nODAAECBAgQIECAAIFOFKjNKJ4dG+0/JTbb8oKY+9yLrysoroiIDx98ZQwa8dP4n9tducqgmIXE+0aPjkcP3i9WfvjA6Hr/O6P7uD0ijh4Ry4/eM1Yes2f0HLFrzN5rWPx88OC4ervt4s6tB8e8PYbG8qOGx8q/OyC6jh4e3UfuHCtHvytWHLlbPPHed8eN++wTM+66Kz+TanZG1U77ERQ7rUfUQ4AAAQIECBAgQIBAk0AWFN/81nPiDfveHG8dfG4seOKZ1xUUs8Y/dPAVMWj4j+PPt75ilUFxxYoVcf/HPx6Pjdwjuj+yT3T//cHR85H9ouuUkdH98cNi6d8dHA+9c5cYO2xYHD9qVBxz9NHxiSOOiF8OHhzz9h0eK044MOKUQyOOHxndJx0Uc/ffOSZtvnlccd558etf/7rxfcWmHe6AO4JiB3SCEggQIECAAAECBAgQ6F8gC4pbbHp2DNr9lhgy+Isx/7GnYtac+2P6w3PioUfmx8zZc+KR2XPi0d/PicfmzI1ZT8yL3897KuY+PT/mP/1cPP30s/Hicy/FswteiBeeXxgRK+J9B381Bg3/RWw89LJVBsWlS5fG72fNismjRsWjB+0bXWcdF3HWcdH9mRPipROOiof2GR7/Z9dd45hjjonTTjstzj333PiXf/mXOP/kk+OmzTaL545/f8Rph0XPp98bTx6+f/x6003jk4cfnq8zceLEyM6Amm2j034ExU7rEfUQIECAAAECBAgQINAkkAXFbd5yZgza66Z4y5ALY8HvX4rfPTglbrtratx21/3x2/tui6lT743f3XdfTJs2LR548MGYOXNmPPTww/HYY4/FrFmzYvbs38e8efPimfnzI1YsjaNGfS0G7fSf8ZfbrvrQ0yzE/eEPf4j//MlP4mdvf3vMPvTQWHH+p+PZU4/OQ9+5I0bEcccdF+ecc05cddVV8R//8R/xy1/+Mq6//vr41+OOi4f32TO6zv54PHXMETF1px3jlAMOiFNOOSUuu+yymDJlSmT/T3H58uVN+9sJdwTFTugFNRAgQIAAAQIECBAg0K9AFhQHb356fujpnw8+N8Zf/fNYtnhhdL28PJYuWhSLlzwVixcvjMWv/rF+WRivvlq7v2zxolj8ysLGZcWyRXH/b2fGzsO+FG9458R487bfWOWMYldXVyxYsCDuvvvuuGbs2Pjp9tvHnGM/EDduummctffecfzxx8fnPve5+M53vhO33XZbHkqfeOKJmD59evzkJz+Jaw8+OB4+5OA8VJ4ycmScdNJJ8eUvfzl+/vOfx6OPPhovv/xy+I5iv13vAQIECBAgQIAAAQIECLQXyILiZpufExu/69fxl9t/N7bc4h/jPSMvjcP2vSoOO/DyOGTk1+OwkRfH+0deEoePvKR2fUB2/bU45MCvxaEHXhLvPehr+eV9o74ab9vxC7HxFt+NN+1/R/yvt3xplUExm1lbsmRJPhuZzQB+6ytfiRt23TXOOPLIOPnkk/NDSLPZw3vvvTefHczWzWYIs39/8cADD8QN110XPxgxIs4ZPTpOPfXUPCRms44PPfRQLFy4MP8XGe33et0uNaO4bv1tnQABAgQIECBAgACB1Qi88MILcccdd8RGg78cb/ybn8agHX8Yg4ZeG4O2+F4M2uq7MWjwDTFo6+xyfQza6rrm62z5ltfVLtnj23w/Bu3w3dhk1x/Hxu+YkM8IXnTRRXn7/ZWRhabFixfH3Llz8xPQXH311Xngu/TSS+NHP/pR3H///fms47JlyyJbN7tkJ8F5/vnn8wB53bXXxiWXXBKXX355/OxnP8sPiy1CYrZuJ/5kdWWzqVnoffXVV2NQVmR2J1vYqUV3IqSaCBAgQIAAAQIECBCoRmDRokX5oZzjx4+Ps88+Ow93xx57bLzeS3bYaNZe1m52qOiqfrq7u/PAlJ185s7bb49f/epX+XcMs5nBLMhmGaqcn7LbWXDMvoOYBcnsDKfZoamPPPJIYyaxvP6qtr0uHstqExTXhbxtEiBAgAABAgQIECAwIIEscD355JN5MMtCXTYDeMEFF7zuS9ZO1l52SGnW/up+su8SZrNr2XcW8xPjPPNMZCG2v0m2LGxlJ8PJguRTTz0Vzz77bP6dxP7WX9321+bjguLa1LYtAgQIECBAgAABAgQIJCAgKCbQSUokQIAAAQIECBAgQIDA2hQQFNemtm0RIECAAAECBAgQIEAgAQFBMYFOUiIBAgQIECBAgAABAgTWpoCguDa1bYsAAQIECBAgQIAAAQIJCAiKCXSSEgkQIECAAAECBAgQILA2BQTFtaltWwQIECBAgAABAgQIEEhAQFBMoJOUSIAAAQIECBAgQIAAgbUpICiuTW3bIkCAAAECBAgQIECAQAICgmICnaREAgQIECBAgAABAgQIrE0BQXFtatsWAQIECBAgQIAAAQIEEhAQFBPoJCUSIECAAAECBAgQIEBgbQoIimtT27YIECBAgAABAgQIECCQgICgmEAnKXHDFth2221jfb8cfvjhG3Yn23sCBAgQIECAQIcJCIod1iHKIdAqsCGExH/6p39q3e38frbchYHXwIb3Gmj7hmAhAQIECKxVAUFxrXLbGIE1FyiC4k1xWqyPlyIEtJPJHvNDgMCGJeD3vm9/F++Trje8P5ro81qf9/2tsGRtCAiKa0PZNgi8DgFB8XXgeSoBAskJCIrNXcaj2cO9DVPA78G66XdBcd242yqBAQsIigOmsiIBAuuBgA+EzZ3Io9nDvQ1TwO/Buul3QXHduNsqgQELCIoDprIiAQLrgYAPhM2dyKPZw70NU8Dvwbrpd0Fx3bgPaKsLJo+JY088NMbPmBbjTzw0v53dL1/Gz+ivqfpzLpwYCyJixoTseeOi39WzZp6fGOe1WSd/7oRp/W1onSwvbMoWx2Y15vuQmdXKyterG5QLzfepWD5jXJNp0WbRRu/zMtMxMen53iVNt4p2inYb7r19Vm6zdR/Omzy/qbnijqBYSLgmQGBDEOjID4T5+3ttDG2MifXxphgzeq9XPdbm7/1rMKZ2pMeG8EK0jx0l4Pdg3XSHoFihey2c9YaE3kGk77LeAFEOhcVgU1vWu05WdLtltZ1Z9XaLNnt3vL/1a8Flfky6sDd49T6rtry/fWqEniI8tQTc7HmNdXobrd/qp+0+A2tvcCsPvLUANi5mtITGxmYay+vPn5wFxbJL+33O222EwJp/0/43HmtsKQ/o/Tk2t9f7nNZbgmKriPsECKzPAh35gbDfoFgeOwbWK+XxaiDP6EiPgRRuHQJ/QgG/B39CzDVoSlBcA6zXv2otgPQfkEpbyMNMMQC1C4XtlkUUA1Ae/krBpQglM7JZypbAla2b11TaZvOycrAtaiqFudJ2SntQu1kKir1Bt/TcpoBWzGrWt1eqM68/n13Nmm0T0upBdPyEdrODRc31krLZ1aztrLas9tIHgNoa7YJir3fNZuKqZxdrDbUJiuV9L7tmt5vrrDfR+B+K6+MZT7N9yt78+xsA+lte2LgmQKCzBb74xS/GwoUL+xSZLbvgggv6LM8WdOTvfWmcyMfXbAwpjZltd6TNUSVNf1xs/QNqP2NpR3r0t8OWExiAwHrzvjCAfU19FUFxrfZgLSSsMijWZ7uaBpMJ4wZ26Gk9+EzKDzMtha36YDapfihr1nYjtLXbXmPwGhPnXVgPVXk4Kx92WQo8/QxuOW0+uNZqaWwzf6AU9hqBsLSsTZtZWOzbRq2mIiA3urM0qDeWRT1InzguxteN8vZKNZbdy9vKPxjkNWU1ZoGuVGvDq2Re32j+vNLj42eUXgOlDxlFkM8OE279MaPYKuI+AQIpCGQfBgcNGhTDhw9vCotZSMyWZY9l67T+dGQwah0nGkGx/r5fep9f1RjfNCY0xr5Wgeb7HenRXKJ7BAYssF69Lwx4r9NdUVBcq31XCgmr2259UCqHlVU/pRRcGiGrtCwfxOozVqWAkrWZDVztZxSnxaQLi1murK0/ZVAsvjeZDbL1bZQG4lUNtA2HfD/WJCiWwm3mUQzS+XaL/cxar63Xa9/8vNryVo9aVX0Ca6PY4kb9NTBhXJxX+mDRu61ivd5rQbHXwi0CBNIRyALhbrvt1hQWyyExeyy73/rTkcGozzhRHAFT+8Njbcyqjbn9vp/Xx978j7b5H4DLY2qrQu/9jvToLc8tAmsksF69L6zRnqe5sqC4VvutHhL6OWlJbynlYNJ+ICn+Ktk2UOWDUSmAFfeLYNS7ofxW0VZ5Ni273Wj7+fmxoD7A9Z4Mp1xj619USzWXwl/r4JmHqnpYyh5rvd9SZtPdtjX39xfeRnCuN9G6L30+ANT2rW29EybWw3NrCC8ZNJzbrHPhuBh/Yd9g3rRzLXcExRYQdwkQSEag9UNhMZPYX0jMdqwjg1GfcaI3KNaCX3Eoamn8a+ql3vG/+INift06PjU9p3anIz3a1GkRgYEKrDfvCwPd4YTXExTXauf1DhSr2mxvYBoX5cNFm4JcPYwseL5+pswiDGbBqxh4imXF/VJoa8zi1Q/HzENhKUD1mWXMnlu0kxdfCopNy1v2rLTNtsHrNQbFbCt5WGyEsnbbLc8S1h8v1ZN7ZrXny8rr9g2KxYBeHNZbOxNtfx8IyrW0zjyWXwMtQbIfR0Gx7Ok2AQKpCZQ/FGaHm64qJGb71pHBqGXsaBozi7EzW6ef9/HauF4bZ/Lb+dhVHg/679WO9Oi/XI8QGJDAevG+MKA9TXslQXGt9t9ABoVaeBg/uf2/qugdYNoVXmu/ESgbA1Z9ebtQVYTJ0mGQjefnh5qW2mx6fml5YzttaioNrq1BsXdWsB7SVrFun5ZL6/bWWwp7+eOl+3kDpZpLg3T7E+CUvsdZPxQ1386EafUTBmXfGx0T4yfU/oVJbw2lmdxsm33qqNXQmK3ts2N9FwiKfU0sIUAgLYHiQ+HqQmK2Vx0ZjLL38vpY1+cPqS1jRJ+eyceB3j8sNo3j9TG4dXwst9GRHuUC3SbwGgWSf194jfud0tMExbXaWwMICc9Pi/GTi0NYSn99bBvkSt+za7cfjRBYDFD1oNQU+LIn1me28uX1oNp7jGk97JSDU/acUuh6TUGxNJvWqKe0rF2bM8bVT2ZTrzE7w2mxXj2QFSepaQ5uxf63Q+o/zK1q4C7OdpfN+J43OTsDam32tzbT2BtQa39F7j0stTiZTd/rfmqLcNbT/mk8QoBAQgLZh8LssrqfjgxG7YJiaVntvb7NWJOPTc3jZ1NQzDDarFM26kiPcoFuE3gdAkm/L7yO/U7lqYLiWu2pAQTFop7iUJbifv26zwDT8njvLF3pENTG2T77CZYzJtbObpqdDbUcvuptF202z4K9nqC4iufWB8ws6JW3VwSupvBWGqT7zNzl7fQGtoKp5pd9z3BMTMr+f2IWNPusW6uvvK38L8jZCWgunBjZ4ae1Wcj+Dg3uu91aGB8TkzLr0kxtc2Bs8yFDUCy6zjUBAhuIQCcGo/LYW8wo9i7rHdPK41bxR9h8LCmNbc1/yFz9d9Y70WMDeSnazQ4S8HuwbjpDUFyr7rXBpHkg6aeA1xgUm1prGpjahZfetYswWAxgRY21gJY9t3WmsXdgLJ5Tvi6eX/yltPxYcbscxHoryW61b7vRZrFy0/6t7pDP2pOKAT67bnzPMAuMxZlX89Vq2++tr36/dDhw7lU/DHVVM4pFqeUZyDyc5v2bBcNiW5mvoNjwqt8wMLSKuE9g/RfovN/74n26Zl8bR7KzgtdCXj4e5Ee31MbJPmNVS5f1BsyWB/q523ke/RRqMYEKBfweVIi7iqYFxVXgvK6HGod99h52WASk9tctQa4RFGsDT/vntISj4gQvjcNUW9pst0NFncUhnPk6tUGxFoDK4SWrZQBttttOFcuyoFjUnYfGUm2t9/Pt94ax2kCfnQhoVb71fW/qi2wbvR8asgG/6UNBn+2W2q/PRp43ufcDRlZW/iEj67NiX1qsfEexBcRdAgTWa4HO+0DYPPbVxo/sKwfF99RLY08+ppTHzb5dJSj2NbGEwOoEOu99YXUVrx+PC4rrRz/ai/VYQFBcjzvXrhEg0EfAB8JmEh7NHu5tmAJ+D9ZNvwuK68bdVgkMWEBQHDCVFQkQWA8EfCBs7kQezR7ubZgCfg/WTb8LiuvG3VYJDFggC4pHHHFEfsr47I1yfb20A1lf99V+rb+vY337p+nbdu8HG/Iyr6s/zeuKY7qOG/Lv/7rcd0FxXerbNoEBCGwIITEbvP0QIECAAAECBAh0joCg2Dl9oRICBAgQIECAAAECBAh0hICg2BHdoAgCBAgQIECAAAECBAh0joCg2Dl9oRICBAgQIECAAAECBAh0hICg2BHdoAgCBAgQIECAAAECBAh0joCg2Dl9oRICBAgQIECAAAECBAh0hICg2BHdoAgCBAgQIECAAAECBAh0joCg2Dl9oRICBAgQIECAAAECBAhUJrBo0aJ4rZdBWVXLly+Prq6uyFKkHwIECBAgQIAAAQIECBBIX+C1hsTseYJi+v1vDwgQIECAAAECBAgQINBHQFDsQ2IBAQIECBAgQIAAAQIENmyBhIPi/Jh04aFx7InjYsaMcXHsidnt1su4mLHK/q23MWHaKteqPTgtxp84JiY9X6yaPbe4X2vnvMnziwdr189PjPNOPDTG14tYMHlM3xovnBgLmp/Vci/b7qHRp+2WtdwlQIAAAQIECBAgQIDAn0pgHQbFWgDqG+5aw149DBZ7XA6FRcDLl31XIZ0AABfjSURBVLWEwtZl5eflwWtaPWi2214pmDXa6Q2KMyZkj0+LBZNrAXX8jL5BsW8orNeXtVeEw/LtYv/y64HYFCG16YnuECBAgAABAgQIECBA4HULrMOg2Kb2fAZuYAEoD2JrEhRbNlcLcrXwVr4deTAs11CEwIm1GcU8HPY+XqtjYh46BzTrVw6H5dtN9fWG0qbFjTure7yxohsECBAgQIAAAQIECBBYY4HkgmIt1DXPAo6fsPpDT1ufVwt1tRDYmNW8cGJMmpEdytrOsSWcNYW8IkyWDj2tH3baaLscas0otgO2jAABAgQIECBAgACBDhFYXVC87rrr+v33GX/6s56uwYxidvhn/v3E1wjZCI5FaMvayWcTW9ptLCuH09qMYm8NbYJim7pq6/e2kwfc8vYbz2kJpY3lxY3VPV6s55oAAQIECBAgQIAAAQJrLrCqoJiFxOLSbr08KJ5xxhmxJpdVljjQoFieres3aGWBrPcQ0dp2W2YQ+5z8ph4Ss/aLGcBGwfVwlh16Wtpm8X3F7MQ6TYeelmvMtlO0V56JLN9ubCe7kW2rN1A2ZiWblrXuW62BNekL667Za5cXL68BrwGvAa8BrwGvAa8Br4H1+TUwfvz4RippFwCzZUVALF+3rpsHxVtvvTXW5NLYcrsbAwqKpbA3ofbdwHZBqnam0fmxoHGW0myDq5n5y2cPW06Kk0005ievqX9H8fl2s3mrabe8r+VwWL5dXicPiu2DYG21djXUHlmTvrDumr12efHyGvAa8BrwGvAa8BrwGvAaWF9fA2PHjs1zXRFLWsNffyGxCIzl9RtBsaurK3p6eoo2X/v1QIJiPcxNyv7VRDFL19hiLbAV/46isbhxoxQym2bnyrN3LUGxUVMRztpsI6+p3kZR05rMKM4Y1zwb+TpmFBu76gYBAgQIECBAgAABAgQGKJDNlGYhuPgpB781vb1OguKCGeNi0oyI2tlGs/9/uOrw1xwaa+s2HSJaSGTX9RBaPpdNvp38UNMiKNZmGMdPrv2PxHw2sz6z2dRuHhRLZ1UtAmR5FrFYJ1tWPF6up3F7NXU31nODAAECBAgQIECAAAECay6QfFAsdrk3KBZLsus2s33lh1cTKmuHsLbMKDae3xsUG4saN9oEuSIERjnU1sNo4zuOtTbHTxjTPKOYP3dMTJqRhdGsnvmxIL9dHI6aPe/QaA7BjWLcIECAAAECBAgQIECAwBoJbOBBMbOqhbosFJZnABtnJG2EuFbX1xIUS4e0FjOG5RnFUi29oa9eX7Z+KWw2qilCZMv/c2w87gYBAgQIECBAgAABAgTWUKBjgmLj31P0+13BUsjK1imCVn2HGzOK+eGiLeuW26w/r7y93lBW6E2r/+/E9iGyttZrCYqrOfS0mG3MZw1rW8nrbITV2sxhn5P11B9vGBS74ZoAAQIECBAgQIAAAQKvQaBjguJrqN1TCBAgQIAAAQIECBAgQKACAUGxAlRNEiBAgAABAgQIECBAIGWB/oLib37zm1jTy5/+rKcpy6qdAAECBAgQIECAAAECiQoIiol2nLIJECBAgAABAgQIECBQlYCgWJWsdgkQIECAAAECBAgQIJCogKCYaMcpmwABAgQIECBAgAABAlUJCIpVyWqXAAECBAgQIECAAAECiQoIiol2nLIJECBAgAABAgQIECBQlYCgWJWsdgkQIECAAAECBAgQIJCogKCYaMcpmwABAgQIECBAgAABAlUJCIpVyWqXAAECBAgQIECAAAECiQoIiol2nLIJECBAgAABAgQIECBQlYCgWJWsdgkQIECAAAECBAgQIJCogKCYaMcpmwABAgQIECBAgAABAlUJCIpVyWqXAAECBAgQIECAAAECiQoIiol2nLIJECBAgAABAgQIECBQlYCgWJWsdgkQIECAAAECBAgQIJCogKCYaMcpmwABAgQIECBAgAABAlUJCIpVyWqXAAECBAgQIECAAAECiQoIiol2nLIJECBAgAABAgQIECBQlYCgWJWsdgkQIECAAAECBAgQIJCogKCYaMcpmwABAgQIECBAgAABAlUJCIpVyWqXAAECBAgQIECAAAECiQoIiol2nLIJECBAgAABAgQIECBQlYCgWJWsdgkQIECAAAECBAgQIJCogKCYaMcpmwABAgQIECBAgAABAlUJCIpVyWqXAAECBAgQIECAAAECiQoIiol2nLIJECBAgAABAgQIECBQlYCgWJWsdgkQIECAAAECBAgQIJCogKCYaMcpmwABAgQIECBAgAABAlUJCIpVyWqXAAECBAgQIECAAAECiQoIiol2nLIJECBAgAABAgQIECBQlYCgWJWsdgkQIECAAAECBAgQIJCogKCYaMcpmwABAgQIECBAgAABAlUJCIpVyWqXAAECBAgQIECAAAECiQoIiol2nLIJECBAgAABAgQIECBQlYCgWJWsdgkQIECAAAECBAgQIJCogKCYaMcpmwABAgQIECBAgAABAlUJCIpVyWqXAAECBAgQIECAAAECiQoIiol2nLIJECBAgAABAgQIECBQlYCgWJWsdgkQIECAAAECBAgQIJCogKCYaMcpmwABAgQIECBAgAABAlUJCIpVyWqXAAECBAgQIECAAAECiQoIiol2nLIJECBAgAABAgQIECBQlYCgWJWsdgkQIECAAAECBAgQIJCogKCYaMcpmwABAgQIECBAgAABAlUJCIpVyWqXAAECBAgQIECAAAECiQoIiol2nLIJECBAgAABAgQIECBQlYCgWJWsdgkQIECAAAECBAgQIJCogKCYaMcpmwABAgQIECBAgAABAlUJCIpVyWqXAAECBAgQIECAAAECiQoIiol2nLIJECBAgAABAgQIECBQlYCgWJWsdgkQIECAAAECBAgQIJCogKCYaMcpmwABAgQIECBAgAABAlUJCIpVyWqXAAECBAgQIECAAAECiQoIiol2nLIJECBAgAABAgQIECBQlYCgWJWsdgkQIECAAAECBAgQIJCogKCYaMcpmwABAgQIECBAgAABAlUJCIpVyWqXAAECBAgQIECAAAECiQoIiol2nLIJECBAgAABAgQIECBQlYCgWJWsdgkQIECAAAECBAgQIJCogKCYaMcpmwABAgQIECBAgAABAlUJCIpVyWqXAAECBAgQIECAAAECiQoIiol2nLIJECBAgAABAgQIECBQlYCgWJWsdgkQIECAAAECBAgQIJCogKCYaMcpmwABAgQIECBAgAABAlUJCIpVyWqXAAECBAgQIECAAAECiQoIiol2nLIJECBAgAABAgQIECBQlYCgWJWsdgkQIECAAAECBAgQIJCogKCYaMcpmwABAgQIECBAgAABAlUJCIpVyWqXAAECBAgQIECAAAECiQoIiol2nLIJECBAgAABAgQIECBQlYCgWJWsdgkQIECAAAECBAgQIJCogKCYaMcpmwABAgQIECBAgAABAlUJCIpVyWqXAAECBAgQIECAAAECiQoIiol2nLIJECBAgAABAgQIECBQlYCgWJWsdgkQIECAAAECBAgQIJCogKCYaMcpmwABAgQIECBAgAABAlUJCIpVyWqXAAECBAgQIECAAAECiQoIiol2nLIJECBAgAABAgQIECBQlYCgWJWsdgkQIECAAAECBAgQIJCogKCYaMcpmwABAgQIECBAgAABAlUJCIpVyWqXAAECBAgQIECAAAECiQoIiol2nLIJECBAgAABAgQIECBQlYCgWJWsdgkQIECAAAECBAgQIJCogKCYaMcpmwABAgQIECBAgAABAlUJCIpVyWqXAAECBAgQIECAAAECiQoIiol2nLIJECBAgAABAgQIECBQlYCgWJWsdgkQIECAAAECBAgQIJCogKCYaMcpmwABAgQIECBAgAABAlUJCIpVyWqXAAECBAgQIECAAAECiQoIiol2nLIJECBAgAABAgQIECBQlYCgWJWsdgkQIECAAAECBAgQIJCogKCYaMcpmwABAgQIECBAgAABAlUJCIpVyWqXAAECBAgQIECAAAECiQoIiol2nLIJECBAgAABAgQIECBQlYCgWJWsdgkQIECAAAECBAgQIJCogKCYaMcpmwABAgQIECBAgAABAlUJCIpVyWqXAAECBAgQIECAAAECiQoIiol2nLIJECBAgAABAgQIECBQlYCgWJWsdgkQIECAAAECBAgQIJCogKCYaMcpmwABAgQIECBAgAABAlUJCIpVyWqXAAECBAgQIECAAAECiQoIiol2nLIJECBAgAABAgQIECBQlYCgWJWsdgkQIECAAAECBAgQIJCogKCYaMcpmwABAgQIECBAgAABAlUJCIpVyWqXAAECBAgQIECAAAECiQoIiol2nLIJECBAgAABAgQIECBQlYCgWJWsdgkQIECAAAECBAgQIJCogKCYaMcpmwABAgQIECBAgAABAlUJCIpVyWqXAAECBAgQIECAAAECiQoIiol2nLIJECBAgAABAgQIECBQlYCgWJWsdgkQIECAAAECBAgQIJCogKCYaMcpmwABAgQIECBAgAABAlUJCIpVyWqXAAECBAgQIECAAAECiQoIiol2nLIJECBAgAABAgQIECBQlYCgWJWsdgkQIECAAAECBAgQIJCogKCYaMcpmwABAgQIECBAgAABAlUJCIpVyWqXAAECBAgQIECAAAECiQoIiol2nLIJECBAgAABAgQIECBQlYCgWJWsdgkQIECAAAECBAgQIJCogKCYaMcpmwABAgQIECBAgAABAlUJCIpVyWqXAAECBAgQIECAAAECiQoIiol2nLIJECBAgAABAgQIECBQlYCgWJWsdgkQIECAAAECBAgQIJCogKCYaMcpmwABAgQIECBAgAABAlUJCIpVyWqXAAECBAgQIECAAAECiQoIiol2nLIJECBAgAABAgQIECBQlYCgWJWsdgkQIECAAAECBAgQIJCogKCYaMcpmwABAgQIECBAgAABAlUJCIpVyWqXAAECBAgQIECAAAECiQoIiol2nLIJECBAgAABAgQIECBQlYCgWJWsdgkQIECAAAECBAgQIJCogKCYaMcpmwABAgQIECBAgAABAlUJCIpVyWqXAAECBAgQIECAAAECiQoIiol2nLIJECBAgAABAgQIECBQlYCgWJWsdgkQIECAAAECBAgQIJCogKCYaMcpmwABAgQIECBAgAABAlUJCIpVyWqXAAECBAgQIECAAAECiQoIiol2nLIJECBAgAABAgQIECBQlYCgWJWsdgkQIECAAAECBAgQIJCogKCYaMcpmwABAgQIECBAgAABAlUJCIpVyWqXAAECBAgQIECAAAECiQoIiol2nLIJECBAgAABAgQIECBQlYCgWJWsdgkQIECAAAECBAgQIJCogKCYaMcpmwABAgQIECBAgAABAlUJCIpVyWqXAAECBAgQIECAAAECiQoIiol2nLIJECBAgAABAgQIECBQlYCgWJWsdgkQIECAAAECBAgQIJCogKCYaMcpmwABAgQIECBAgAABAlUJCIpVyWqXAAECBAgQIECAAAECiQoIiol2nLIJECBAgAABAgQIECBQlYCgWJWsdgkQIECAAAECBAgQIJCogKCYaMcpmwABAgQIECBAgAABAlUJCIpVyWqXAAECBAgQIECAAAECiQoIiol2nLIJECBAgAABAgQIECBQlYCgWJWsdgkQIECAAAECBAgQIJCogKCYaMcpmwABAgQIECBAgAABAlUJCIpVyWqXAAECBAgQIECAAAECiQoIiol2nLIJECBAgAABAgQIECBQlYCgWJWsdgkQIECAAAECBAgQIJCogKCYaMcpmwABAgQIECBAgAABAlUJCIpVyWqXAAECBAgQIECAAAECiQoIiol2nLIJECBAgAABAgQIECBQlYCgWJWsdgkQIECAAAECBAgQIJCogKCYaMcpmwABAgQIECBAgAABAlUJCIpVyWqXAAECBAgQIECAAAECiQoIiol2nLIJECBAgAABAgQIECBQlYCgWJWsdgkQIECAAAECBAgQIJCogKCYaMcpmwABAgQIECBAgAABAlUJCIpVyWqXAAECBAgQIECAAAECiQoIiol2nLIJECBAgAABAgQIECBQlYCgWJWsdgkQIECAAAECBAgQIJCogKCYaMcpmwABAgQIECBAgAABAlUJCIpVyWqXAAECBAgQIECAAAECiQoIiol2nLIJECBAgAABAgQIECBQlYCgWJWsdgkQIECAAAECBAgQIJCogKCYaMcpmwABAgQIECBAgAABAlUJCIpVyWqXAAECBAgQIECAAAECiQoIiol2nLIJECBAgAABAgQIECBQlYCgWJWsdgkQIECAAAECBAgQIJCogKCYaMcpmwABAgQIECBAgAABAlUJCIpVyWqXAAECBAgQIECAAAECiQoIiol2nLIJECBAgAABAgQIECBQlYCgWJWsdgkQIECAAAECBAgQIJCogKCYaMcpmwABAgQIECBAgAABAlUJCIpVyWqXAAECBAgQIECAAAECiQoIiol2nLIJECBAgAABAgQIECBQlYCgWJWsdgkQIECAAAECBAgQIJCogKCYaMcpmwABAgQIECBAgAABAlUJCIpVyWqXAAECBAgQIECAAAECiQoIiol2nLIJECBAgAABAgQIECBQlYCgWJWsdgkQIECAAAECBAgQIJCogKCYaMcpmwABAgQIECBAgAABAlUJCIpVyWqXAAECBAgQIECAAAECiQoIiol2nLIJECBAgAABAgQIECBQlYCgWJWsdgkQIECAAAECBAgQIJCogKCYaMcpmwABAgQIECBAgAABAlUJCIpVyWqXAAECBAgQIECAAAECiQoIiol2nLIJECBAgAABAgQIECBQlYCgWJWsdgkQIECAAAECBAgQIJCogKCYaMcpmwABAgQIECBAgAABAlUJCIpVyWqXAAECBAgQIECAAAECiQoIiol2nLIJECBAgAABAgQIECBQlYCgWJWsdgkQIECAAAECBAgQIJCogKCYaMcpmwABAgQIECBAgAABAlUJCIpVyWqXAAECBAgQIECAAAECiQoIiol2nLIJECBAgAABAgQIECBQlYCgWJWsdgkQIECAAAECBAgQIJCogKCYaMcpmwABAgQIECBAgAABAlUJCIpVyWqXAAECBAgQIECAAAECiQoIiol2nLIJECBAgAABAgQIECBQlYCgWJWsdgkQIECAAAECBAgQIJCogKCYaMcpmwABAgQIECBAgAABAlUJCIpVyWqXAAECBAgQIECAAAECiQoIiol2nLIJECBAgAABAgQIECBQlYCgWJWsdgkQIECAAAECBAgQIJCogKCYaMcpmwABAgQIECBAgAABAlUJCIpVyWqXAAECBAgQIECAAAECiQoIiol2nLIJECBAgAABAgQIECBQlYCgWJWsdgkQIECAAAECBAgQIJCogKCYaMcpmwABAgQIECBAgAABAlUJCIpVyWqXAAECBAgQIECAAAECiQoIiol2nLIJECBAgAABAgQIECBQlYCgWJWsdgkQIECAAAECBAgQIJCoQH9BcdGiRbGml0GZwa233hpdXV3R09OTKImyCRAgQIAAAQIECBAgsGELCIobdv/bewIECBAgQIAAAQIECPQREBT7kFhAgAABAgQIECBAgACBDVtAUNyw+9/eEyBAgAABAgQIECBAoI+AoNiHxAICBAgQIECAAAECBAhs2AKC4obd//aeAAECBAgQIECAAAECfQQExT4kFhAgQIAAAQIECBAgQGDDFhAUN+z+t/cECBAgQIAAAQIECBDoIzCQoDh69Ojo71L+X4t9/o/iyceNjOJSbLm4n10XP5ZFw4lL7TXjteH3w++C34VibPB+4P3A+4H3A+8HPlMXrwHvB2vv/aAIioV9OfiVb7cLiuXHs9uNoFgM6q4JECBAgAABAgQ6X2Dx4sUxd+7ceOihhwZ8mTFjRjzxxBOxbNmyWLJkyYAvS5cujZUrV3Y+igoJbOACRVAsGFrDX/l+OSyWlxe3BcVC0TUBAgQIECBAIEGBhQsXxuOPPz6gsPhaguLy5cujp6cnQRklE9jwBNYkKGaBMAuLRTBsvRYUN7zXjz0mQIAAAQIE1jOBbLbv2WefjYcffniVgXFNgqJZxPXsRWJ3NgiBNQ2KreGwfP//A/2DOtmsWxqJAAAAAElFTkSuQmCC;" parent="1" vertex="1">
                    <mxGeometry x="30" y="100" width="455.85" height="160" as="geometry"/>
                </mxCell>
                <mxCell id="11" style="edgeStyle=orthogonalEdgeStyle;rounded=0;orthogonalLoop=1;jettySize=auto;html=1;entryX=1.009;entryY=0.208;entryDx=0;entryDy=0;entryPerimeter=0;" parent="1" source="7" target="5" edge="1">
                    <mxGeometry relative="1" as="geometry"/>
                </mxCell>
                <mxCell id="7" value="dyn_view" style="text;html=1;align=center;verticalAlign=middle;resizable=0;points=[];autosize=1;" parent="1" vertex="1">
                    <mxGeometry x="534" y="123" width="70" height="20" as="geometry"/>
                </mxCell>
                <mxCell id="13" value="&lt;ul&gt;&lt;li&gt;DataDisplay&lt;/li&gt;&lt;li&gt;Dyn_Query&lt;/li&gt;&lt;li&gt;Dyn_BindingFun&lt;/li&gt;&lt;/ul&gt;" style="text;strokeColor=none;fillColor=none;html=1;whiteSpace=wrap;verticalAlign=middle;overflow=hidden;" parent="1" vertex="1">
                    <mxGeometry x="510" y="143" width="190" height="80" as="geometry"/>
                </mxCell>
                <UserObject label="OperationData.cshtml" link="OperationData.cshtml" id="15">
                    <mxCell style="text;whiteSpace=wrap;html=1;" vertex="1" parent="1">
                        <mxGeometry x="40" y="-1" width="140" height="30" as="geometry"/>
                    </mxCell>
                </UserObject>
                <mxCell id="17" style="edgeStyle=orthogonalEdgeStyle;rounded=0;orthogonalLoop=1;jettySize=auto;html=1;" edge="1" parent="1" source="16" target="4">
                    <mxGeometry relative="1" as="geometry"/>
                </mxCell>
                <mxCell id="16" value="gt-func-main" style="text;whiteSpace=wrap;html=1;" vertex="1" parent="1">
                    <mxGeometry x="524" y="50" width="90" height="30" as="geometry"/>
                </mxCell>
                <UserObject label="OperationData.cshtml" link="OperationData.cshtml" id="18">
                    <mxCell style="text;whiteSpace=wrap;html=1;" vertex="1" parent="1">
                        <mxGeometry x="500" y="340" width="140" height="30" as="geometry"/>
                    </mxCell>
                </UserObject>
                <mxCell id="22" style="edgeStyle=orthogonalEdgeStyle;rounded=0;orthogonalLoop=1;jettySize=auto;html=1;entryX=0.25;entryY=1;entryDx=0;entryDy=0;exitX=0;exitY=0.5;exitDx=0;exitDy=0;" edge="1" parent="1" source="19" target="18">
                    <mxGeometry relative="1" as="geometry"/>
                </mxCell>
                <mxCell id="19" value="gt-func-main" style="text;whiteSpace=wrap;html=1;" vertex="1" parent="1">
                    <mxGeometry x="560" y="390" width="90" height="30" as="geometry"/>
                </mxCell>
                <mxCell id="23" style="edgeStyle=orthogonalEdgeStyle;rounded=0;orthogonalLoop=1;jettySize=auto;html=1;exitX=-0.057;exitY=0.634;exitDx=0;exitDy=0;exitPerimeter=0;entryX=0.25;entryY=1;entryDx=0;entryDy=0;" edge="1" parent="1" source="20" target="19">
                    <mxGeometry relative="1" as="geometry">
                        <Array as="points">
                            <mxPoint x="583" y="453"/>
                        </Array>
                    </mxGeometry>
                </mxCell>
                <mxCell id="20" value="dyn_view" style="text;html=1;align=center;verticalAlign=middle;resizable=0;points=[];autosize=1;" vertex="1" parent="1">
                    <mxGeometry x="620" y="440" width="70" height="20" as="geometry"/>
                </mxCell>
                <mxCell id="25" style="edgeStyle=orthogonalEdgeStyle;rounded=0;orthogonalLoop=1;jettySize=auto;html=1;dashed=1;" edge="1" parent="1" source="24">
                    <mxGeometry relative="1" as="geometry">
                        <mxPoint x="580" y="440" as="targetPoint"/>
                    </mxGeometry>
                </mxCell>
                <mxCell id="24" value="" style="shape=image;verticalLabelPosition=bottom;labelBackgroundColor=#ffffff;verticalAlign=top;aspect=fixed;imageAspect=0;image=data:image/png,iVBORw0KGgoAAAANSUhEUgAAAskAAAEOCAYAAAB7MIp8AAAgAElEQVR4Ae2937Mcx3UmqJedHzGxXj/YDxuxReICBCCPLI10JdlL0hBFmpIAkrZ2sKBF2IIcIjyG1lKsTduhkTU7MTREiQQngpY5Wo1IC6JIE0NFbIgyBYiEgxs2pYB5iZE5YghB6HYE/4Ddnbf1vukhN7Kyv+xTp09WZfWt6q7q/h5uZP04efL8+DLzq7xZ1W+74YYbXJd/hz79nLs6mbjJZOLefOVr7t6i6FR/l7ZSV7e5ZzwZT2KAGCAGiAFigBhYFwy8bV0coR/slMQAMUAMEAPEADFADBADXWGAJLnjlfSuEkM97OTEADFADBADxAAxQAysDgMkySTJ3A5DDBADxAAxQAwQA8QAMaAwQJKsAsInttU9sTH2jD0xQAwQA8QAMUAMDAUDJMkkyXxyJAaIAWKAGCAGiAFigBhQGCBJVgEZytML7eCTNDFADBADxAAxQAwQA6vDAEnyyEhycejT7rmrP3bPf25Yn9Yrtj/rvr3zsnvsrmHZxcFldYMLY8/YEwPEADFADIwZA2tDkovikPv0c1fd5M1X3NdOrCdRCwR54iY/ft79yRK+P118/AfukclP3RPx7/9yn7rXju32Z7/t/t5/H/taP0Q56p9M3OvPfZr/EhrZw92YB0nazkmeGCAGiIHNxECnJDmSuOmPifgfFJn9vele+dqJhclNJMFSpyDERXHYfea5H7rJ9Vfc1xJEbswgj/57n1fg321P/1f35OT/dp/6mE2SfWyLD33VfX8ycddefszd1SGJB0F+/VufWRg/Y849bd/MwZl5Z96JAWKAGFgtBjolyTKZxfZj7mVPmJ7/kz0Tm0i+FUH0bVx+5WvuRFG4dSfJ4ZcM/YPGvXuOp8xT7nEOSfa6PvTV77vJ5Jp7+bG7OrGzKLbdZ7/9927y+rfcZzok3rl+U261AxTjz/gTA8QAMUAMrAoDgyfJRfFu99jLk7CNomYFdZ1JcozBteVss7DAmEuSi+JD7qvfn7jJ68+5T3dAakuS/PzrJMncXtHJQ5eFbV7jBEwMEAPEADFgYWClJDmSP7GF4sfPf64yGRbvzluRrpLkKbGe6n1zutosAxC3L4i29X7mKPPj593nyhfmZttHsnVCv9ga4u2Iq+O4P0lvRwmryNeTq8jv/uKu+/PJT93D53+3EjvfjnWvKI65j33vH8Re45+6J370E/cbv5LeSpFLkn2bYTX5dffcp9P6ZC7qjkmSOXDV4YP3iA9igBggBoiBvjCwMpIcSaJ4CS0Q3SuVLze8+7GX3WSSJogIzIwk77idq7NtCdj2Icl3IL87FdJZHP6Me+6H0xXr6Yt/UWdJZJt0zq94o+2JWgEG8fdE+97pauvhzzznrk4mTtoJ38oY1Oy1Lm5/xv3JGz91T/zd37pfEau3kQy/8RP3Gx8IhDVc+6/uc396NBLqWL+GKLchydib3MULdiTJHPzQD1gSC8QAMUAMEAPLxMDqSHLGCnFcyZ1cc8//Sf2q5IzQzsisD6QnWeV2Db8aLAikFWRPVH84mX1ebaazStItnSC+cg92rC9WkaNPmjjjxUNlZ0pe2x9IbPXrE8Vtz7jPvfFT9+eXzrt/0eD7u780cY9PqvVlG61I8vZn3fOvd/MCH0kyB0SJQx4TD8QAMUAMEAPLwsDqSDJWbhOrpz4AkWS2IclqxTUSWkVKrQAHkjzb9hDbz9CJVWOTJIv6WEGXcrBlu1w1n5H0EIPpCnWD/f5zbY+qLRdhq0X9FynQdiDJ/6/73J9+OK4w454vW5HkDvclF3d+1b3iP/vGL1uYeZE54jEnDmKAGCAGiAFioDsMrIwk+yRGAhv35c5vNwjEcUZcU8lvQ2jLttUe49mn6marxm10Rl/kqvF0tfy62FaBFedZe7N9zuFaddU86m0iycVd7r4X/7+45SJutXj1b90RtYqMFebZ94/xLeR/qGzDkLFejCQv/kUKfPbNvwDIr1p01+FlTnnMuBIDxAAxQAwQA2kMrJQky8REMjiZOPlSXFjdnSfPsq4/bkVop+RV/yhHaGtBkpwg3T9Wn8DD3mdrJVn7VPGrgSR7WbllIhDhedIbfyBEkedQd14eNrUiyf7X9/7eb7f4M3e3IujQl1v6/c3lSjJ/QIQryfzCBzFADBADxAAxsEQMDIYke9IUibLYlwtSqb88oUlWG5Kc+lrEXkhy0FldBdY2pny05OQ1axuGvI9jvIDnv3Jx29P/j3tCvLAHmbAFY54Md0qSO9wi4THx2fITcN18Ug5xYJl+cmZsGBtigBggBogBYuAGtzKS7Enljvo0G7Yi6FVWrCZrouzlm35MJBJvsRILfXLFOnxFw299WGwlOehs3hbiQWe1XwfGNrr9iu8Tf/df3O997x/cI+fPzD1xBjL8U/fli+fdu6arvCWhLn96ep48w642K8l3fvUVN5m87r71mfqXLaG7rpyR5MW3btTp5z1OBMQAMUAMEAPEADFgYaBTkoyX0uz9tvMEMqyQyj25Xsb+RblIdsX+Zbldos1Ksg+Ebrv8HFv5K4GLkeTYvrQPx2KfMpJQrpBflb6HY0nco2yLL3TgBb4nan5CuiTSJSkOe5E9Yf4X5Yt/VZI8I89B7klRJ/Vd5aK40331Ff9jIt2QWpJkDlzoByyJBWKAGCAGiIFlYqBTkrxMw4fWVliJnif5udtFmvxps5rcpKvP+2EV+Zp7+c/unlvFXqRdkmQOiIvghnWIG2KAGCAGiIG9YoAkuYMN4PGXA8Wn3pCYuAJu3INMThn1iO8459Rbpgw+19bFC3uwmySZgxywwJJYIAaIAWKAGFgmBkiSOyHJh91nnvuhmxg/LR1e6Js4+Rm4RRPc1ar0ou3X1SumX7ToapuFbGv7s8+71yfX3MuP3dXJ6rTUzWMOuMQAMUAMEAPEADFgYYAkuQOSjMDqfc5hb/b8FgzIL1KWRHnnFfe1e/f+Utwi7afqlN81vvay+7O7+7HrQ1/9vsNe9y5+7jrlB69zoCQGiAFigBggBogBjwGS5A5JMjsVOxUxQAwQA8QAMUAMEAPrgQGSZJJkbmEgBogBYoAYIAaIAWKAGFAYIElWAeHT33o8/TGPzCMxQAwQA8QAMUAM7AUDJMkkyXxyJAaIAWKAGCAGiAFigBhQGOiNJB84cMAdPXqUAVcB38sTDevyiZgYIAaIAWKAGCAGiIHlYKA3kvz2t7/dPfDAAyTJJMnEADFADBADxAAxQAwQA6PDAEkyQTs60PIJejlP0Iwz40wMEAPEADGwyRggSSZJTpLk4sHvujcnk/h94snkJffIgebvID/43TdFHV8/r95QOmJRnHFHHrvmTvzpl91NRbO/3u6iOOre/+9edyeeuOZ+7Y/+0G1l1huKz7SDEyExQAwQA8QAMVDFQG8ked++fc5vuWDAqwEfazzOXrzuJpPL7txN9aQxEOSr7sLprUHmPpLZx55z7zps+1IU/4v7FU+Sz/65O5hJdovirpIk/8bXr5ckeV9mvbHigXavR79mHplHYoAYIAbSGOiNJDPo6aCPMTY5JLkoHnTffXPiJpfPZa/ALjsWILMnHvuWe9cvdEeSl+0H21uv/sV8Mp/EADFADAwPAyTJ3G6RteKbRZJPft1d+cnEXb1werDbDUiShzcIcWJgTogBYoAYIAaGiIHeSPL+/fvdkSNHsgjYMgNTFB9025//oTvxxN+4m2+triSm7hXvOevuePxaud/U7zn1f7/+r/+N2y/+pR7rfuk/usPFb7pbHhXyf/Zt9+53Vdvqw+e4kiv2Eb/0yAEzBye/fsX9RMhNXnvW3X9j2sY8knzeXdkdJkk+9IkX3b+c5g45rJZ/7X7pPcH/ynaLX/r37kP/YZbLD99/eyWecf+y0K1lZK7n7Kjb9nHjaffsaxM3efMF96DAmtTHY04sxAAxQAwQA8RAPxjojSQP+RNwN933V+6jT15zx84crxKeKRn+6Of+bSTAJUF+9NvuPe+cEciyviLKRXG72/78f45E+tingu5IsEvyPNPRNaCL6Squ3OpQFCfd+Ssvzr1sF/YNvxb3DQe5n9S+YJciybFdSbjV8WvP3u9uHAjJa7OS/GuP/sD9yyf+2v3Sdsjbod/2RHvH3fbr76rgBrksjv2l+7Unr7mP3H+Hef8dv/+aO/HEjvvAR98d7/s6RxMv+t107vL0Bcg33QsP9ocd2M+yn0GWcWVciQFigBgYJwY2kiQXWOlVxPWm+77jPvrEVXf7vbdGEmMBOxJiUT9ee7JaP17veTUZX6K4fO6metunZFrLFSfDKnBq5TlFkmV8oGOv2y2K4v3udx/7lnvhhReSf9/43z5S66e0Sx63Icknnng5EmSvo/jlR92HvpL+ekUdSZ69MJjeCy3tLNs79Ki77B843vwuV5K5LWohvGtM8XycEzXzxrwRA6vBwEaSZA+2X/i9H1S2XMTtEg/77RL1q3YW8Y3Xvvx8ZdV5WcAGQZ1MJi5FdL0tYZvF/FcqiuKsu3h94iYvPeIOGP4vkyT3GbNWJFl93UKSZOvrFXUk2fv0i+VK8jV3omaLRZ++U/dqBlnGnXEnBogBYmCcGOiNJG9tbbnt7e3Brn5gGwS2XOD8ruk2CQnosMI825ca97IKQrxqkuztjURXbHfQhHn+G8byO8jpL1OQJFdXkhchyT5HfsvG/yT2L5Mwj3PglOMDj5lDYoAYIAbWEwO9keShAyaS2umWiZIIC9IL+8OK8zUnyXOsK+Sta9CxilISZrkn+OT5K24343vH2uZlkuTBbLfoeCVZx3RGmGcvDWoZnq/nwMu8Mq/EADFADAwfAxtLkj04wwt4/isX4WsU8oU9fz9uwRBkOFyfvqQnrg+NJAc757dQFGcvuusNWzJ8Xf23TJKs2+7yfJXbLSw/SqL8pP0yYIGvW0z44p4VO16b76eMCWNCDBADxEB3GOiNJA99u4UHEV7gO/YHf+HuePxvjU/C4YsVO+6DJ24piSPqlFsuBkSS/V7jHfUVCetlvvAli103mbzmnr3/xjkynOpc60KSvX9YwU19qq3yCTixP3sve5LDp+KqK8ZNL/PdePpZ99p068xPrnzdnRS2pPLE690NjowlY0kMEAPEwGZjoDeSPORPwEnQYzvFicQLexVSXO4l3XEfvPfW8OLfgEiy9+nsd9+cfjIM+4xnn3mTPvtjv+2i8p3kkoxViXPt/mXju8p4eXCvX7fQtvZx7oly9bvJMwLbhiQXR//S/ZrcY/yk3LteXSEuSbb45nL5oPWn6Z++Loot968uXHVvvfUWv5Vs/HejD1xQ52ZPiMw/808MEAMSAxtPkmUweMzOMTQMHHr0ckmS3/zug9mr/kPzgfawXxEDxAAxQAyMEQMkyVyhIvkaKAbinuTdK+7rJ+s/SzjGwYc2c9IkBogBYoAYGDIGeiPJQ/1Z6iEng7ZxsAAGzl0OW2a4F5mYACZYEgvEADFADCwXA72RZCZyb4ms3Q8svoM8MfYGM/Z7iz3jx/gRA8QAMUAMEAPEAEnyQP/Vzs7JzkkMEAPEADFADBADxMDqMECSTJLMPcnEADFADBADxAAxQAwQAwoDvZHksXwCjk9oq3tCY+wZe2KAGCAGiAFigBgYKgZIktVTw1ATRbs4iBADxAAxQAwQA8QAMbA8DJAkkyTz3yvEADFADBADxAAxQAwQAwoDvZHkAwcOuKNHjzLgKuB8Alz8CbA4+ZR79UeX3Bc+MP/N4JNPvepe/cZJ4o14IwaIAWKAGCAGiIFOMNAbSSYZXJwM7jV2RfGg++6b+GnqafnSI+5AMU8u99rWsuqXBHkycT+69JC7TflRFCfdU68GP9eRKPsHgEn52b8fuUtf+EAnHX9ZeWM7qxsHGHvGnhggBoiBvWGAJHnNnrYiQb56wZ3eGi8plh07kuBXn3InFUGGXFHc5h763htuMnnVfWONfp0uEOQfuUsP3UZyvGZ9FdhlubdJjPFj/IgBYqAvDJAkr9nEWzz4XffmZOIun7tpbUhVIIqvuqcayG9x20Pue29M3OTVbyTJdF8dqQ+9eDh4w1g976M96uREQwwQA8QAMUAMzDDQG0k+fPiwO3PmzNoQtbGA5uTXr7ifTK66C6e31iL2xQcecpfemLhconjbQ99zb0yWty0BRLaPbR5e9zd38n0fC0Zp52wAZiwYC2KAGCAGhouB3kjyUL+TXBQfdNuf/6E78cTfuJtvrW5HSN0r3nPW3fH4NXfiidnfr//rf+P2i3/9x7pf+o/ucPGb7pZHZ7In/uzb7t3vqrbVV6c4ef6K260hycXJr7srP5m4lx454AKhxt7l19yz9984OGKdu4qMeGI1+UeXvuA+IPKD+32UJ7+5E/YMd7yCTZI83IGzDxxRJ/NNDBADxMCwMLBxJNkD8Kb7/sp99Mlr7tiZ4xVSCDL80c/920iAy2uPftu9550zklvWf+Kak0S5KG5325//z5FIH/tU0A2dJ0ryPNPRZUeokl2QXlnOCHBx8ry7sju999ps3/LZi2+6yeQl98iBfmxcxN+i+IB76NIbblKzF1nrjXuTE1/B0PJdnRcnv+l2/Mt1HbZLkjyswbIrrFAP80oMEAPEwDgw0BtJPnjwoDt+vEpChwKKAiu9irjedN933EefuOpuv/fWCnnWdkdCLOrHa09W68frS1pNbl5JnpJk9WJfcfaiuz4JK8za37rzoniH+/jDF9wLL7yQ/LvwhRO18Uzpx1aG3K0W0BNWdhd/ge8DD11yb5Rfk5APGuI4sWKMVexJR9s9SJLHMYgCdyyZL2KAGCAG1gsDvZHkoQPlF37vB5UtF3G7xMN+u0T9aqpFfOO1Lz9fWXVedhxySfLVC6fdlvATJHlIL/y13Y+MWC97XzLa9WVcyZ5M9vzd5kDW3+CXLdbs5VqJFx6v14TKfDKfxMB6YWBjSTK2QWDLBc7vmm6TkEAPK8xijzH2JgtCTJLcfcfAymzbleRAkldDLkGS33rrrYW3XuC7yNY3oSUuedw95hhTxpQYIAaIAWIAGNhckow9xNMtEyURFqQXAQorztecJM8WIbauQccyy2WvJPe93WKRrzu0fdlP52fh7RbxR026Iei3lds+lvelDh0HnnOiIAaIAWKAGNhkDPRGkg8dOuROnTq10F7UZSUkvIDnv3IRvkYhX9jzNsQtGIo8W4TYurYsP2Q7yybJsu2uj7Eq2+ZluPiy3xuX3EO31W+b6dJe/CKgt7WrdrEneZlf6ugyJtTFyZUYIAaIAWJgzBjojSQP9RNwMll4ge/YH/yFu+PxvzU+CYcvVuy4D564pST8qFN+Dk6QZ5LkfgaCti/hLbqPWeKi7XFceW7xFY6cNkCS2243ydFNmX7wyrgyrsQAMUAMrA8GNpokeyBjO8WJxAt7FVJc7kXecR+899ZQjyS59/8UYF9y7mrqsl92wxc4Xn3qZOexIElen4GWkyZzSQwQA8TA+DDQG0kew3YLAnYcgM1dTcYqcpvvKg8ZAyTJ48DnkDFE24ghYoAYIAYWx0BvJJlJWTwpjF01dlhNrtubHPciT151T51c3l7kPnNFklzFQZ+xpm7GmhggBogBYkBjgCSZ32DtfJuABlkX5/EX7RI/5BG+aNHNVyW6sLcrHbmr6F21Rz2cJIgBYoAYIAaIgYABkuSBkuQHv+t/Jlr8ylvq+LVn3f03rsfKaVOn9ET5lb95yv3hB6r+9rkvuMmmvu/HL3yU+efn4PqON/WTHBADxAAxQAwAA72R5CH/LDWcZ8mOQAwQA8QAMUAMEAPEADFgYaA3kjyGT8BZAeE1dhRigBggBogBYoAYIAaIAZLkgW63YOdk5yQGiAFigBggBogBYmB1GOiNJB8+fNidOXNmFC+FEYCrAyBjz9gTA8QAMUAMEAPEwBAx0BtJHqKztImdkBggBogBYoAYIAaIAWIgBwMbTZK52s1OktNJKEOcEAPEADFADBADm4eBjSbJfLlw8wDPQY45JwaIAWKAGCAGiIEcDPRGkg8cOOCOHj066D3JYyXJb//929yJZ293tx6rfi9YJ7woftHd/s1j7t4vvsvdWDTI/tbN7sSzx9ydn2zfcYo91NU287x9/BkzxowYIAaIAWKAGOgeA72R5DEQ0EOHDrlTp04Nmshr0BfFIXfLlz/Sgvg2k2nfxl6I7l7qav943n0nZ0wZU2KAGCAGiAFioD0GNpokjxEwgZA2E982ZNrHYS9Edy91x5gD2tx+oGHMGDNigBggBoiBsWGAJHlk30l+z4Mfcfd+5X3uHQ0/RV3cvu3ueiZ/+8ReiO5e6o6tw9BeDvLEADFADBADxMBmYKA3krxv3z7nt1wQSN0BqQ3xbSLTILYf+093Ofmn9ySjTcjca+yFhi5fN+yXPlbqvPfZW9z7tmZ7oePqtiL5qb3TkEfbstQPCrBByuBY++Rjg3u+tPZsz+IXtrdAXvtEfHeHb8aSsSQGiAFigBgYEgZ6I8lDcjJly9j2JAcCWiWelm8gnff88WF3g/HCXkkANYE1Xr4D8ZR6QIIl8Qxyt7t7Hp/tlQbBlaQyXssgyfBBkmHYo0mttim2owj97PoshlY7PqaSSMP/lKyVA17jQE8MEAPEADFADIwbAxtNksfwciE6GAgaCBuuW2UdmQbRlCTX69DXI6FUX8awrqOuJq9YhUZbsW4OSbZIO15aFPWTOq365bX5/dzB/up1kGTYjjhbDxi4x3LcgyHzx/wRA8QAMUAMSAz0RpL379/vjhw5MujtFmMiyYH4VomcTCSOQaY1YcX9FIEG0QUp1AQX9X2piaKuC1nYAmKfJLTGp+osnVZ965pv36pf2i0IdrRzun8bdlo+QpYlB1BigBggBogBYmAzMNAbSR4DAR3LL+5FIqhWda1OGshhmkxrggsdmlTiHHtxdVnZRmGs2nq9IMkg7NEPRVS1XKWukIVNksx62fR2C7mtorq3WPvjz6XeVJwQL5abMUAyz8wzMUAMEAObi4GNJsljAT7IIVZ5U3anSKiUT5E/3UbdSrLU5491XdyHDpDPlH0mSZ6u7moya8XA+6Tl5F5m2FP6Lkg3rltlKk6WLK9t7gDK3DP3xAAxQAysLwZIkkfwCbhccgdSahFJdGJr2wbIqyeaqGsRV+jQZZIkqz3AaEcTWNTHirPXn9oWMtf2dKsGiLi+L88t3+V9eUySvL6Dnswzj5lnYoAYIAaIgRQGeiPJW1tbbnt7e9B7klNBGdJ1EN8cEphD7DT5BXG956Gb3d3qu8rYxtDUNkguCLaPH+yWxNdf10QVdT1Bl7JaLpUT7U9KrrQJe5/Vlz2sOjmxtOrxGgdbYoAYIAaIAWJgPTDQG0keA0AOHjzojh8/PmgiH8jibG9tKq4gi02E1tcHgcUWBU9ucU0SXUsWdWQ7aBv3UGpdsN0TUMiEvc3zP7UN8g45WaZWoqUMji0bZPuQk3usvZ0kyesxwAFzLJlPYoAYIAaIgbYY2GiSPPSXC0E+JSFNJTiXTKfqD+16IKnzLyCCzIMox3PjpUaQYYsoD81f2sPBmxggBogBYoAYGBYGeiPJY9huMXSS3MeWgzF0QDwcgAhLm/W9ECP757fr7kmdPB7WoMR8MB/EADFADBADQ8BAbyR56ATUB38MNg4BJMu2AVstrJ/ABvHF6jr2NMv9zN7eSKYz9h8v2z+2x8GfGCAGiAFigBgYPgY2miQToMMGKLZLYN+wLy3ijC0XUq6UNbZgMOfDzjnzw/wQA8QAMUAMDAUDJMkj+ATcUMBCOzhwEQPEADFADBADxMCmYKA3kjyGn6XelCTTTw5oxAAxQAwQA8QAMUAMtMNAbyR5DIk4cOCAO3r06KA/ATeGONLGdp2O8WK8iAFigBggBoiB4WNgo0kyX9wbPkA5iDBHxAAxQAwQA8QAMbAKDPRGkvft21d+PWIVTuW2SZLMTpeLFcoRK8QAMUAMEAPEwGZhoDeSPAYCOgYb2SE3q0My38w3MUAMEAPEADEwDAxsNEkew2o3O8owOgrzwDysAgP+M4j4Jvgq2mebxD0xQAysCgPhNxPmf3l3mfZsNEleZqC7bGvdfokv/vDHgt81xg+K4DvJ9478B0Ry86sxhR9h8XEgsdrbxIZvdOsfqdEx7/Pc22B9F1y3KfGv8y6/Ib5KX7TNyzjHDw/FceEr73PvuLGofVEbYxHq+LLPuCE/Om/LiM+ibQyhbzTZDhuRx2XNCW0wJ/st7Lzzk3sbt5ri0sV9zDPWL+Lm6Afm4XPdGAfZOpmcNvci0xtJ5pcj+gF7BGgGoQydcLVPYTngxMTUxWQUiMUt7n1b9ZNhjl19yOiB0Rq8x0SSu8xdH/FeVCcm2S4wuYgNwEnTpAm5JpIVJ5uMcWMRe4dcJ46ZDSQ5YrlBrktfkZem/HXZptS1SPtd940+xuw+dMq4NR3nYg560I+b+jvkV1m29a3O1py5bhX9UtrcG0mWjQz1eIzfcg6dqZn4RiCPYFKMnaADW1c9ONZh3RoQgr3VfFpydXpXea/L3K3SjyG13SamJX4ySV3A1XAfIPvKQRwLG+K0CqKyCEntMk6rbt/70seY3YfONnHPxRx0rgJ7aLtt2da3Ov25cx3is4qHyY0myWN8cS93UsTgN44n0190t3/zWCf/1lz14JgaEFL5sAac3IEj1dYyr7chdMu0a8xttcl/7njg40GSXL/dok3cu8IXxoVVTP7eh1W3723oY8zuQ2ebnFvjel19kMBxzNeH3C1f/ohbdLuFjEObPreqnJIkP/BA7R41mdBVH2NAy+lIbSZPy68SvH7l5UPb7q5njsW9kV5vuU/PWJXBvbjXyJDxbYFYQQ6l9a/tOZ0Nq82l3wPck1xnlx4o5Ln0Xw9KGIgRP1laGLHkU5Nzk6y0S7aLY22rhbHUNeAcunyZsjPE6liJSS+XatfCnI5Rk8/aXkxs0k4cQ3eQCf8pkDGztmaHyukAACAASURBVNnIvmH1Bd2+Py9xlehnWj7EargryTqe6RiFSRqx9mUKHyGmeZO67Hc6doucZ2Hu9jC+lvb/1s3uxLMBy6k9mJZO6Tv6DvCn7db3cS516Dr+vHXfmPqFHGl/dK4hh1LLlzY06JR2l/2iZh4I96v/wUN9654V97o+inilxiO0hRLxSOUNcqky5NH7M+sbElNWPOfGzkS84Atyg9LybU5nw9jUps/lxAh5smxLxa7pem8keQyrtGOwUSYwAKp5kgNQmgY+qVsfA+xhogod757Hb3cnPEmdDlbo0GhPAjNeUx3PAnqUFQQYHVNOlFGupuM1DY7az2WcR18SduuYYOC45/HZlw1yfPe+aF3wz6qPCVIP9vG6svc9D97mbj1W3esd9Yrcoc1FyrLtx6srfsCixrM5mf3Wze7uPz7sbihmdkZ/hI0hJ+m+hDq6TfgEm2Z9YErEnq1OvMiHn1gQ5zo8oF3oRXupsoyBylNKNtic9jlVbxnXdTx9m2UsHnqXu1Hmspj+10n4jJghvtreunijXUz8urTIhdZvnVs2WZiDXDm2Cp+scQxYkpjENfge9ak+ABshD3w1yaOeLJvqoI2KnT5vql9Dp+Ur7qHsWqelz7dljWfhWrXfoD7iDjtR1mEOMrKEPuRF3ss5Rk48fr2OEtdfud3d84y3ezo2Tce/aJuYm2fX1PglH+Km/TDKCrx6G/V4HOVEO9qX0P+qbWoZnFu5wT2U6M+L9lvokeVGk+StrS23vb09ipVkAEQOPDKR8jgApdqp5f2cY4AttAcCEHSiQ8KWVHtaDj7ogcW6HgaN+c6Tug6fcgZcyKZKDFh6wsS5fBhI6ZDXLf8q99VAVI29IHvlStN8TCq6pqtRerBN5ci63iaGTb5J2xY9joPtHMnN+5cf8qljUmePxq6UjfaoScJqB9c05kPc53MZ5Oevy/blcZkrZYe8L4+tXMv7qzzOxVzKh9R171MqX9rfVE60XM458t6EOeBMjym6fvRB9AHYIe1Gf8TYDP2wQ+ML9yEPnXVlUx1pT50e3MvJfdc6YzxV39Fxh41WWdf3UvotPf5am3YtHcgJcBTidawkzNoWjQHoA3YwVul6M7kpHxCxQ/vAWZRVC2q4jrJNXlP2QJcvYQfiIO8terzRJHnRoK2iXi6YNNAXtVW2p8EJIFYItDF4x3p4gk10GMvm1ABUbXtGIOFnzoAL2WWVln+ybe2TjL0lpweiioxBknUe6uRha+6kCXkMrFJ3V8fRfjEoe90+1/7BpWlARHyxypJjF+pYcUjZY0101jXffirHqeuWzXU2diFv6ejrWvDbb+tKP9zHuFtjjYF72BrrKfzgPso2sUedVIncNGEOchpnGjeQs/q+vBd9ncYoxrVyPosx6ur2U3756011YHvual7OmN2HTivfqXnHiked3TEPDZiDXvhn5RcydaXOifRN21Lno7yHsV1jQ+vzdoX2ZriCrdCRmh+knahTV9bFvK7eXu71RpIPHjzojh8/PopV2r0EcBl1IyiNyUG3Hzpb/kqUro9zCd7Y/rTDVztk+qW7uXqJiUx3JNTDyq1V6o4Lu1fRidB2qoQ/KTKnB0gZe6mzGvf5BwQvq3WV16b/orbiiGsYnHPaqNiEf39nYFPWqzsO/s/2GcNGK35a1pJJxQA+W7Y0xQHtQkfMsSJ5Vj58e6kcp65LG6Ez5auUtY5he2risuos4xr8ivnWsWyBY2lvzE0DYcmJvdTbdIxxDf74EnhB3RTOEAvI63PU96XWIYmOP77zj97r7ir/7V7M7WHXdaXe1HFOHcjA9zrCnDtmd60T+cFcos+l/4g//EGZeqjLxRzagH7kG9dzS8QGvkgsV22ZXwWWbchcaJ2Qq+oL85Cvh5hYZWqskXZCf10p7auT6/JebyS5SyP70jWWX9zL7UAWeBeNnQSv1lvtPNX9TrI9DDroICk/tJzXUXaGhklNtoXjLjoR7LQ6u7+2CDmps0vG2vuhz+Eb7KobSC2ZmL8MIlvNrU3EYY8vrdzJ+22PfZx8jKWP0f4GPIS41a9GSpt9O5hUtJ1NcYCdEiMWLqx8+Lbqc5z3kNtkY1uftPwqzxE3Sa4iDjJwLG2P9bLwkxd7qT/nGP1EYy6VQ/iPfgA5nMs2tWzAll/V8wsYKMO/3stxSMQPelP9QLaD47Z1IK/7NfTVjY2Q0WVXOsu2p7gIcZxfDcW4omNUZ3cu5uCXziGu55aIB2yU44u2Rfos9Ws5rROyWs5fn2Guec6Anlm9vD5ntSt19XW80SR5LC/upUCtQQFQWwOplm06r+tkaAcdMjVYQA724Bz1YAMGIZBpf122D7mcMmVLTt0+ZVKDYOz4YuJK+R6uzw/i0u5UO7lxifY0EAq0iclf5g73rNLb4SdLSz7Vduq6pT8VOy3bZHcKq14P6moc6zZK2cR/T1J21rVr6S/zmpmrLPyI1Vr0W6vdZVyzsJyLY2lfLn5SOZG6cFyHY8joEriR2E/lW/tu1YV+nddQ9xb3vt++ObxoXUxXkL/4Xnfrl2cvA/v6qfah2yq7rrNITptsz9UZYuVJWnqxJ6Urdb20rahfsdVx1fnW9/15yPMxc5FG50RiWeNf3pPtAGMY13Au8erlYatcFMC1tmNGyhZpF45T9uB+aRv+s6leoJYybY9Jkgf+CTgN/roE13XaunrWPQle3cm0TTivdBqAVU3g2sayna/c4u54/CMV4hQ7hPqXq2WrvKb1y3urPI4xVJ3XslfGHjZjEMIAhuu6hJwerKwc6bo4hw49OFpft/B1gg/NqwHIaUmSjbxaMarUEVgK16sPDLG+kPP2+XjquMFHHacYA/UyJa77Ejbp+EgZHKfasXLcVreXL2Ov/EXbugxtVmOmZYCTMkeZerWOtuchb/P4sfoG7JNjTVN7KVzoeqmcaDnkP4VjL5+LOfiTg89g37EKloEvWR86vX24Djl/TWIespDTvlrnTXV83mQbiMcJNfZBN2yrs6GtTgs7aE+WwMY9f/xed8c35zHoZb0uGTfUqcs/ZHJxihjouMFW6AttztupcyKxjLqwBfiVW0WijBqXpR5vS7DzFnfH2epL07P687bBB6vU+i0ZXGuKkZeDTBknsfAEHYuUvZHkQ4cOuVOnTg16T/IYVpIDiOonthIcU1JaN9C0AYgEb+wA00lTd0jZvgcn/ixboAsygWjUP8VDFqXs3L5tDGK4L0sMDG1871M2xHW239ayD/Gt+JGYYLStGCSswVbHHvpNG8SKIuQsnWhf58DS6WUhlyKYGMDRJv7d7utpnWacEgMj2tV6Yb8vLX2Q96X0H3GW93Fsyclrvi3Zv6QNTfe0rBUXLYPz3LEEsdLxhp4+Sp13H8tU+zk4TskgRxb+6nKifY4xSuDNy0Mmtmn0YWBOj5XAl8YNrtfqxAKFaA/xRX+CP2gf+mQp418n5+tIO63Y6zEb7aNs8qutzrJfKMKHtnSJMVn6K2Wstr2/uj9ZcpV41mAF/ss4Shv8cZ2dyA9wJLEMu6R/uJZjn8QxdJTxNR6iYWNFr8Ch9EPK4LgOJ7k5hb2wVcex7XlvJHkMBHToP0uNgQ3Ar0uu7rB1srx3w6Af3vaSn5zBdi/6WXdGpi2ihQG6brJriiH6vaVf101NVlrOn+eOEcBQTvtWO7y2vuPLWHKbS6iG4g/63F7GjaH40ocdiE8+F6r+x2UvNm00Sd5L4JZRVz4N1rXXZlKt08N745/ccjHDXC+e6xDj8CKUjmPdPS1bdw49TZNC1yQZK0x1Kzp1dvPe4rhi7LqLHUlyd7FcNS4jvzFWrrVtUTbzvwi6vnXeG0kew3YLKyC8tj6da91z6Z+u5a/L4V9uXAHsF8NY1dBx7nqA9hO9/zdk3eoSbKmT8f0g2pb4ly/IsW9P+7Xu/Yj+9dtfVhFfkuT1yCnGpaaHdsj1MX71RpJX0THYZn3HwKSL/T+psqu9PMxHfT66iA9WHJHLppXHLtqkjtmWC8QdZdcE078s+aufrP7Mto6/xIDOPx6cvH3L6tcg5IhJXant1b7xvP8xZB1jrOe6JpK1ihjgAVf2j6aH3VXYuco2w/jV7mXAru3daJI8hn3TXSec+jjpEAPEADFADBADxAAx0IwBkuSBfwKOIG4GMWPEGBEDxAAxQAwQA8RA1xjojSSP4WepuZLMDtV1h6I+YooYIAaIAWKAGFgPDPRGksdAQA8cOOCOHj26tp8DYyddj07KPDKPxAAxQAwQA8TA8jGw0SSZgFs+4BhzxpwYIAaIAWKAGCAGxoCB3kjy4cOH3ZkzZ7hKewM7whg6Am0kTokBYoAYIAaIAWJAYqA3kiwb4TFBRwwQA8QAMUAMEAPEADEwJgxsNEnmajc765g6K20lXokBYoAYIAaIgeVhYKNJ8hheLmRnWF5nYKwZa2KAGCAGiAFigBgABnojyWP4cgRJMjsCOgJLYoEYIAaIAWKAGCAGJAZ6I8ljIKBj+JazTBaP2XmJAWKAGCAGiAFigBhYDgY2miQTZMsBGePMOBMDxAAxQAwQA8TA2DBAksxPtPEzfcQAMUAMEAPEADFADBADCgO9keSxPS3QXj7hEgPEADFADBADxAAxQAwAAxtNkg8dOuROnTrFJyf15ARwsORAQQwQA8QAMUAMEAObioGNJsljeLlwU4FJvzkoEwPEADFADBADxMAqMdAbSd6/f787cuTIoFdpSZLZ+VbZ+dg28UcMEAPEADFADAwXA72R5DEQUG63GC4wOWgwN8QAMUAMEAPEADGwSgxsNEleZeDZNjs+MUAMEAPEADFADBADw8UASTJfWhv0lhgOHsMdPJgb5oYYIAaIAWJgnTHQG0ne2tpy29vbJGAk4cQAMUAMEAPEADFADBADo8NAbyR5DE8W/FlqPgGPAae0kTglBogBYoAYIAaWj4GNJsljeLmQnWL5nYIxZ8yJAWKAGCAGiAFioDeSPIbtFiTJ7AAcBIkBYoAYIAaIAWKAGLAw0BtJHgMBHYONVtJ4jZ2ZGCAGiAFigBggBoiBfjGw0SSZ4OoXXIwv40sMEAPEADFADBADY8UASTLfNh3d26Zj7Wy0mxMFMUAMEAPEADEwHgz0RpLH8LPUBOp4gMpcMVfEADFADBADxAAxsEwM9EaSl+nEom0dOHDAHT16lCupXE0nBogBYoAYIAaIAWKAGKhgYKNJMl/c4xPpog9YrEfsEAPEADFADBAD642B3kjyvn37nCehQwYQSfJ6g3vI2OvLtqI46c5f2XWXz9006L7Xl//Uyz5NDBADm4qB4uR5d2Xngju9VXD872hFvDeSPAYCOgYbczv72YvX3WRy2Z27qV3nKIqz7uL1iXvrrbdIrPbQqUBOfRyvXjjttop2ecjNc50cbFgEB3V6u7jn8eljg7/J5XPupoYYSWy2qZdjb4zV1XFPKIhrTjxz4rKJMiWx2A1joMfZZHLVXTi91UgyTp6/4nYn7estGuNFx/hF29trPcQ1N557bW+R+sXZi+66yKHP/zIWGKyxLdUuxiqMgSVGE+MWMDlJ3F8kRpteZ6NJ8hhWuz1AAXx0EqsDLDqAys6a6qRddxIMnqsik1374/XJgWxVfgWc5E3wfcQgRyfw1kTqolxPgz3yZfWlHD+GIkOS3O2qaW4fwpi8rDHT423RMb4rrLZtH+N8VyQZ+rocX0GSl5lHnY82NuSMW9DXZZy0zZt0vtEkeQyJ1gNT7CRq1VjLDdm3Pga7Ifu7DNvGEtNIfhtWkjHQ9zV5xX7UEwlfRs7ZRrcE2cczhySvCjurHuNX3X4fY1zf40xOH21jQy72Qq6GvWCSE5shyPRGkvnliL0P4KHzzAPdIhqrHsDagLmPwa5N++soO5b8W9i18pFDVqx6uddyJ5tcfZTb+3g3hBjm4C4Xw137s+o+vur2+5g32hDUrvMJfW1syB23VoVR+LROZW8keQxBGvK3nJs6gx6wZufhxa24NUOt2KHz4D7K1L/EMDA1yfl8W7qxEgh/oMcqm/4FX4cpDDRSL9rW9XyspFyqXa3T2utb57Nu15/j37SyfX8s4x9k/P5ylcvEqidy1OW/17SdqW0Jbf2HfCrmiFkOWYFsTpnCH/yKdhkx1vegq/TBvygj9rMumgPE28Ksvof2JYbq2gU+IC+xNsNk+n2G0H76fk78u5Rp439OH5a25eAu4kGNrVJP22PkOObIwGHuGI+253SK/z4ihql+aN2ftV//vkXbmNeNx7ADcbFKy4c6nYiPL2Gr1e/K+9P+bbWBfqXvzcd9fqGrjQ0V2emL2Ri35D19nJMv2JryX+vcxPONJslDfnGvaSAO4J51vrJDXN1xO7uT+OJBqhNroGtduI8BRE7AqU4FWTlghAHupbmXCWGX1Is2FynLttWEhUFSdn4MuJrsep9eUl+DsPws7X4p/cIZYiDblP6EQWuWs5hjMXl5ebTtJwTEKMoqP718aHemV7a5yLG2E228ql5IRB4rOZ++CAO7dft1fki/zckw84WquTanE520KWJBkBHLb/juX+5BXlHX2ygJZ1P+tV3y3Ipl2XbDpIh60reKXiMfiDP8Cedp/IS4DIMkR/yIvHl/z158de5lO+1nkPMvOKd9TcUC7Vq4xDXZD2QOmo4t3Hks6f5WyiXGeJl/4FOOc7Nrwfd4ruIIW+Gv9GkRHNTViTYY458ej71dTVgvZdBfcnVO+wf6AvxHmbLR37ew4q/tiHFyVj+NuTbjRtSXyBvs9mWTXuS4HMeMeUXq2uRjkuQHHmh8i3kVAGkaEHQH8IORB7vu7KEj109wVmePnVF1Hut6vJbRccvOa5CWrmOMAaA6eYQveciBP9Vu3eCeqqNzIuVgj27bin24NokEGXpSNuXkGDqayja5LO0xcp667ttOxUHbZcVFy+Scp/yxrqf6nPYn1lVkK9e3lN1WflM2QUfd/WhnQx8OuJ1N4hpP2n+0vYqyzl9pD3Ih+7+/n7qOujm4gw7dl6GjTRlzZPQjrcfnQY/xVn2dT+jRdsu8Rj1TrEBWxs/CJ3Snyro6aCM3jjm5b62zgSR7v6xxPcYrI2+wW8/NiJmlH/d0uUi7Modan4UpLbPp572R5CGv0iLpQ7YRHSsFcN2xUoNRasBEDHxpTQxo3+rYuq06WdkOjiGf8g1yeymtwRIDTM6Tc4jJpNVn9XROpP2WPf6+FXvrmpfVcYf+1HXcb1t6fWWMaiYA+GPlMGW/twP1mibGOh1t/EF72k5gQf7b0rxmPNBZcm18S9lv4SfEIf2QW9eXcK+pD0s5+AYyhvOmfKV86vo68unt0zmVbaXGvehPAts5uIMNXcUkp79536x+bvlTyiX8k/cktoABrD7jXGLHal/G3DquqwPbc8Zjrxs21eZ9upKcrTOHJE8/kyrzDVtkfCz/c+y2+n1SF1bKE/mV9brGqdS9SccbTZK3trbc9vb2MFeSjY4pgakH89RglNMBtS7fDur5wcb6w2AqZXMGjFLeIB7St0WOvf+mnWoVzevWsnLwk23rGEifpRyOIZ+KQ8jRbMUuDmJqwLPyAbstG1K5h12LlMEG8Q1YZSMmCSvm/lrqX9rRZyMv0s5UDKRMzjHs1BMrJmhJkr0+ncNgR5WkJus29Nkme6PeuJoX9qSn8FnaW9OX4Es6R8Ev5CTEyP+35bJ75ukrbre0I/z3RcevyZc+7yNO0i9tn8avlC3xqfAMe3Nwh3jV5QX6ckttr8al12P1c8QC8vpcty91BHxMt194snj5Gff09IeI5D3okHVxranMqeNlZH5ScU31ZcuGbJ0ZJNnr1+OAPocNiL/0B8cao7FOpg1eHvqRb+iwyj5warWz7tc2miQPOblNnUEPPvocvuUM+pYMBqQU4YN+X2IyzpEt5Wsmdqk35zjGacF/fWMwbRp04GOK/DXFAXZiwERpTQhWPrz++hxXiVxO7HJlgj3VVXUMwKmBP6Ub9Sy/ZZ1UDKRMzjFwrO1EPnTeq/bZJDWvbv3LTSnbg99T8lr2k9lDlVUn5Z+Xxb2mfhn98aS4JEvTstzXGUhykw7LtmVcg+2+P0lMWSQvx54c3FUxslie62yx+puXt/o//Jc4LuWMhwAtK/Hh6/gcl3WBA7Wv12q/zo+UzXV1fBtlLi37F5w3anVmElQZK8RxfkyZbudTcUNdLY84YG7J6WNoW+YbenTZ1K6W57n9hZ7eSPLBgwfd8ePHB7lKOxYwpAZsDNKy06UGsPK6MeDIGFjtoA058cg68riNrK/XpvNiUPADp/QX7afaTl1HPVmmYidl/HHTYFZ3Hz7nDIRWPnz7KTvr2tU+LHqubUJecgZr2WZuXnR7Uoc+9nHRJAkyqfYQM8v+0PZld+5+/+WKeZKa8j3VFmzJKSVOcvou5Nv0DcuOsq3L59zDU7IEXy4/87QZA68jxGnirBhabfR1zcpHXVzq7MjBHWKTNTZOiV3dw7Vlj2WH1f8t3626vg3YDazg/PK5h8v/Hvhfaw39YvqfBDVvWO1btstrXdZZNKfenpQdGAeaxuUY5/gAYYwLCRLfZHeuDSGH0wd3lRsZcxzn6I19uPyvUfcPfLBlzGVvJHkMQRnydgsfPwxi8l/ssbOqTmINAugATQNAalBFfQyqdTm1ZIOtxtctsK9KPXFb+jHAJFcX8C9uoatSR3T+8rr6XfsYYylX2rcz97a8FWNpc92gBJvyYzk/CKfab6Nb2msdh3hUV6VTmIO/OWQBbVnxxj1ZpjApZfwx9JX4EBiQclpXsPuye/HF6ybBQzzTxNueqGBLm3hIO3Fc5ln86xvXrRK2pnBl9UtLD+QkmfN21MUV971M0xhjtbnItTJ3oq96HakYwL42tmmsWDa2yTPi6mNk5SjoyutvJS4Uxq2+Ge0TslHOuFbmeDqfoG55TcXZat+Kj7xWV6fMW8Z4DH2WD7iHsrXOzJVkrx/jxmwrUpVUAofyoRFjZCr/M72zr+fAF6uMMVDzvyVbF/uyXbl/W/0n1tK3qdc2miQP+cU9CUgPdt/J8GdNwrIzRjkxIEp9+rhuYkDHh06U5oA/fZKGjJxwdZvo7JD1pemX6MhWm16vtjE8VCT+VT4dFGW7ll45WUBWDn7wx4p7lFcDj5wwIeNLHadUPuoGvbp7sDW31PEsbVQTJnRZcdLyKRnEwIp/KgZoV5boHxZ+IAeZ0rbpBFPGLDHZQN4iWMCuxgP8rLMD9tSVwJR8OJbyVn4QS19qm1PyMu6xTREP61rKDt2mlOv62OpHqfbhg4yPjpGlD/JWDtrkGbHXfVzGBDJo05cWhkq8qjE9jcUw/uXo9DISC8C+vObtxXWpE8cy/nVyc30mczxGvOAv2vWljpWVc+1L1NeGJE8XZHyb0l/o8qVuO/g7v69fy1X8UfNGRT8WmEQ/lfdxnItRib2UT9C5qSVJ8kA/AbdMQLYhJMu0a53awqCoB2sM+nWTaE4cMNhp/Tl1KTO/F80iJIxTNU5dYZdxrcaV8VhePDAuj4Ugxj7XQJLD+DX/30iNrUim1cOXltvk895I8uHDh92ZM2cGvSd5LCvJfQOUhKD/Qblu0Kq71yb3Xk/dKkcbXZssyweOvP4AgsEHs7x4bXKfGqrvwPA6kWT4lNMv8V+UHNmh5rBvu3ojyWMgoEPfk9xH8n2nkL9m1KZD9WHPpuhMDUYgZPrfkIvEJa4y1Py7bhG9m1Qnrqw0rNRsUky0rxgz9vrfD62X5yTby8YAsLwuJDnOJ4ntcYgv/GYfbu5zG02SAZhNK7HiiH1QYxkgxp4nDEyIO8oun+IDUZ69dAjSh7bqyi7tGFuuZG70HsdFfMEDS128ca+L9haxcQh18PCIWKRKa2/wEOynDc0kY8gxkv0e2BvafGiNJalFlbI/8QG/0x0MvZHkQ4cOuVOnTnVq7JA7G20b92DJ/DF/xAAxQAwQA8QAMSAx0BtJlo0M9Xjfvn3ObwsZqn20i52VGCAGiAFigBggBoiB1WDgbR/+8Ifdpv7dfffd7oEHHthY/zc17/R7c/s8c8/cEwPEADFADORigCSZJJkPCRv8oJg7UFCOkwoxQAwQA8TApmHgbe985ztdH3/b29vuvvvu60V3V/a+//3vL1eSu9JHPf1giXFlXIkBYoAYIAaIAWJg2RjobU/yGD4Bt3//fnfkyBHuSb5hNXt9uMeKcScGiAFigBggBoiBoWJgo0nyUJPSZNfbf/82d+LZ292tx6q/Ha/rFcUvutu/eczd+8V3uRuLelldt6/z4rdudieePeY+9p/uKv/uffYW976tZtve8+BHYh1fN7dejh+58czRtSoZxLXLuKzKl720izjc+cn2k05RHHK3fLmKs3v++LC7YSB9Zy9x6btucfu2u+uZY27ReIU+KMaFr7zPvePG5nGhb7+ov30/YswYs3XCQG8keQy/uDfGRGIizyG+gTA0k+lVxcET3xxSF+T684MkeX0G9b2QZNkP9kr6pK5NOO4qXnF8I0nmfzj5H05iYAAY6I0kb8LEsAofc4lvnGwGtIqs45VDkpexGr4OJFnHdlPPSZJX88BDkryauG9qP6ffxNuyMLDRJHkM+6Y1EEpimbHKgklrkX876zb7Os8iyXv8N26O7STJ6zPgkiSvJpcYbxbdboF+Gh/uM8Y41GG5mpwz7oz7JmCAJPmBB0bzLw1MRDnEN5dMN4Ecbc72EKe3Pfg2IVfuG25YxV4VSdb7H8Me55lfwa7ZuYyRvhd0+X3V1f2s9y44ySPe1nYa6572pa5dEBCZI0lqoD+Fr6b7Mk44Rpu+nX9e7qU/5oKNYb+8t0Xa4OvhvwcpO6G7lFV73FFH+2Dp1DIVvUt4OJPt9XFcYsPj8ENhv/C90/cY0E81VpArxNCXFg7LuE/jI2X98Xwuq/3CkpG+wwZtm5Qp25/uH8/ZrqXr8pzkjhggBnIx0BtJPnDggDt69OigbuN7LwAAIABJREFUCejYVpJnhKz+hRYQAj1h5YICcliVk3pK3Y9XX6qJE5t4CQ821E12KZIMMqYnYHkubYK9TWW0UxHYENcZKbb89rqjT4L8S5IKmyy5JttwP9ooYol72k5c92Wsp3yDTLRJ3EecQYRwDj9QFyXiUkcuIYsSdvncle2U5Op2d8/jH3Fej8Y02pA24BrshG4LP5CVNsIvWR9ysh3o9SXqpO5L2aEeA5uBSAayes/jt7sTHr9Tkos4wd9KjKYyug9bOER9Ga8czOnYAS+6zTk58XAEH7QMz0mEiAFiYK8Y6I0kj4GAjoHII8GYcOQkhHu61MRD3889tyZDq24gHDOSCZnUddy3SA7uobQmX9xrW6b80ddTE7XlT6g7/1Z/jm8p+0Hg5OSfsgk6mu4HO+e/JCKva4wh9rDD8h/tp8po13QVEzpBxmTso6x4CIFeKeevWTFKXS9zIR4OoDN1vdQzJYg5/Q36rNK3IR/u9PFe9Vtt4lqIGbAZSDJWXpEHtJ+KhY6zroe2rOsSW5DzZeq6vxcxYORL6gBW4Y+8x2MSI2KAGOgKAxtNkrsK4jL0aJKQajNOHgbRSNVJXccEiX/TpuSSE2wD0SjrGSumsh1r8pX32xyn7LRiq6+lJm8tB3tyfIOsLq0cIg4grPN1piTIIBfRdgMTyLHXq+WCb7NPCIbzeaKtbZHnUefULvgBcibjh3uWj/peyhbpj7cDsUR70jbZtrxe1mvArpYf4rn0rz4PYeuLFSMdvxBf44FYxSu214A5HbdYz8CxluU5iRAxQAz0jQGS5AF8YqQpyXHiMCYcXTc1iWm53HOQE6yAacIM23DfKq3J17efQyTRfkpHth/Yw2hMvpJMQB/IAVY8YYcmcFbdXN/QllUGvTNCqs91HeTB+jc1fLFyg2vwSz5I+OM7/+i97q5ngh3ynm4/da7tQhyRTxk/TXClTl0vhR2tA/Xgpy41ntEm6sFOXB9TWYmtwn/FP0VwpY/ADvqB1FmRUzpQT8dbngNzFT3KTnmPxyRExAAxsGwM9EaSl+3IOrenJ/6Ur5qQpOQWvY6J1U90coJbhDx5G1JER9qHNvdKVupik5r4pX1BZkZaYWNOXci2KeG3jzNsr4sBZGySPF1lznjImvnpVxe9v2GV0dtRxiNDh/RT2wW/4IuMH+5JbEGX7gMyN5DxpZYDWUN7UrbuGLa0rad1ejslMdTHe9Wv25Pnldgq8ln1r2YlWZFfqVO2VdVXRMyCXEvZumONlzpZ3iNhIgaIgb4xsNEkeSw/eFISAmMFVIMDE5VFMrTsoudoQ07uqYmzqY0U0ZH1rPbkfXkMgpTap2i1BxJlrSii7Ts/ebj8JTbpM9pN+W61hTo5ZSQLnpSWLynN/4tb6onyCZzk2hNieIt732/fHF7wKoopOX6vu/XLH5n7eoG3AXEyY1hLzorp/tTgW8yFQcRDnGcPKVbcEQP5EIdr1sODjJ8+hk9WzrXsUM9ljHQcqv7VbNVR2EMf02OMx5ePu4xXLuZk/LSd8p48hpzMtbzPY5InYoAY6AIDG02Sx/ByYXUyq/+qxSKTUh2IvD49GcqJF3UjuWnYXwx5lDn2tvUfK3Xabt+m1gW77zzrfyp7noTKiThFvK14+LZyfEMcUiUI661/eFskrElZRUa1HHxvIouQk4QHxChFSEIMwk8KS5LkbUAM0S70Q07HD7pwv9Qx/ZJB5Zr6yXW0c89DN7u7nzlWwS3sb7Oqqe3U8RzDuYwt4pPKgxUjxEDGTevxcSix/sWb3R3fxEuCYZyK9RMPblYMLf2m3HSF22MSPllyvEaiRAwQA3vBQG8kef/+/e7IkSP8BNwe9zyHiW62gpZKNgifJBIp2dzrmLBAPMsJqYYI+8lSylrylgzqWJMdJtocv+JEX2MjZIJt0xVMtVom4wN5SRTkfUlE5PVOSPKUCHpbTdI/JcaIny61zVY+yzgIEgMcyVVh65r0FTmSdXAfbSK3kEU+rfgh5vDH0uv1QxfkfIxwTccLPkAWpYwR6uKeLrVO+DjUUsa2KQ9WPL3/ls86liGX9pYNtKtjCTyU7bbEMeId/DuW9dP2qMOShIkYIAbaYKA3kjyGVdqDBw+648ePD5bIYzICoahLbJgwmsl0nQ7emx88QNgsssB4zceLMWFMloUB9E35oLOsttkOcU4MbAYGNpokDx3kciWozlaQaU4W3XZarILJVa+6PPBet/FnPBnPFAZi3zS2SaXq8DrxRAwQA20xQJK8x+0QbQNO+fF00rBlYn6vMnM4nhwyV+uXK2zZ4sPr+uWW/ZU5HRoGeiPJ+/btc37LxdAc3mR7MLno/YH6fJMnH6zK+5ikXtZriyHsndRx1uddtdfWPsqPY2LC6qnGjXXO/yqNI6fse8wTMTBsDLztl3/5l92m/vkXC0+fPr2x/m9q3un35vZ55p65JwaIAWKAGMjFwNs+/OEPu039u/vuu90DDzywsf5vat7p9+b2eeaeuScGiAFigBjIxcDb/GpqH3+33Xabu+uuu3rR3ZW9v/qrv1qS5K70UU8/WGJcGVdigBggBogBYoAYWDYGetuTPIZPwI3lF/e4Z2nYe5aYH+aHGCAGiAFigBhYPwxsNEkmoNcP0Mwpc0oMEAPEADFADBADXWCAJJmfgOMXSIgBYoAYIAaIAWKAGCAGFAZ6I8lbW1tue3ubAVcB7+LJhjr4hEwMEAPEADFADBADxEC/GOiNJI8hcUP/WepVx7A4e9Fdn0zcW2+9Vf5NJpfduZuKxgefsxevxzq+bm69HH9Pnr/ididX3YXTW4125OhbhQzi2mVcVuEH2+x2cN565KVqv9m95L5QNPc35qHbPDCejCcxQAwAAxtNksfwciESterSE98cUhfk+iOxJMkcvFbdF/puvyi23CMvTdyEJHm0D8J9Y4T6OQ4SA8vBQG8keQy/uEeSnA+yHJJcFGfdxesTN7l8zt3U0wrYOpBkDm75uNvEWJEkEx+biHv6TNwPEQO9keQxENAx2DgU0GSR5JPn3ZXdibt64bTbIknmKhj34y+EAZJkkoWhjPu0g1jcdAxsNElet+RjJRd7iH15+dxN5kQdVmTFfuOrF9zprfT+x1WRZG1n2OM8286B+5af+l7YCxzqen8Qp5xtJBZWiulDgbVybt2DPbHdmpgXxUl3/sputNHXkQ8fyLW8Jm1sui9l5THs9vGU9k4S+8AhD5/m7Qx+eDs/Ue4nn7hJ6Xf4r4OW97bAdqnTyq+0e1nHRVG4+595zU0mu+7SF6r9JXWvKO53z7w262ver91Xn3IfTzxI5pJk6OW2DBKZZeGf7RBrm4YBkuQ1We0CWZGELRCtl+ZetguEd0Y0QcjqyGKKJKNdSWj0cYrI1XW2aJMikoG4CdsTRNWqjxfmvH2IkyVXZ5e8F+saLzRqO816yjfIgCQGMhmIGOI8s7t+awvk28Ye9coYCfus/JeyO9WHKxBrtIsYxZiX+brqdnZ2ywe4ID97IRTtw08fE+QNOhGnVZXF/c+41yYTt3vpC5UHUJBWSYDLazuvuqc+PiPUsX6CKOeSZLzoZxH2VcWG7ZJEEQPEwDphoDeSfODAAXf06NHKJLJOgRuaLyASTStuICFaLnUdflokCfdQQkcXZCZFMq3rlm2wRfqJGEkC5m23dMKnphI6K+1MV4ElyZV6QBxT9zVxRF15PeqY7v8GsUbsLf+hp65EPW2b5aelZ96usJKMleiof2q3jn2ZS0HO0UbqOu6nyuJDn3VPfOcFd+nSJfPvhRe+4v7Xd8wIbEqPvJ4isYH87rpXn/p47bgXV5wTL+al9Esb/HGx9Yh7acIX/HRceE6SRgwQA11hoDeS3JWBfepZJyIP8uFX7CRh0/GTREveA8nSBBIyFhHFPZSwAUQN1xcpU6RIkyqv2yJwlr2WnK9v6cy12Yob4pDKQySSBhmM94yXH7X9Mka4B3Ibzmcr7tn+JPaVQ3/KJ+iP9k99mztX+mXsEUsLP1IOba2y9Ku4cgW3ifhKW2ey1RVmyOSSZMizJCEgBogBYqAfDGw0SV63F/dAMjxRxp8mNZ5Y4Z5VDoEka2IlO79FlrQ84qDJVoroWTplm03Hof5sy4A+1/W1vfI+bLdyg2vIqWzHH+9ceNpduh6Isbwn9Tcdg+C3i111v623M5J1taqu9Qc7g824Bz91idXoJh+WcT9urZhuudDn0gZsr5jzZ5ckWcaJx/1M8owr40oMLI4BkuQHHqj91+hYwSXJliQ8i5Ina2VWxwYkR7anZXLO60ikJFVSl7yeWkXtiyTDb09eYXtdDCADIin9iPeMlWQp549nfn7Cnb+y4y6c9uVu+YJf+ZKcsVKtdehz+KLtt2KHBy6Q9tImTYr1+YIrydrO3PM+tlsEP6cv8E23TJRE2CC92Dcs9y9zJXnxCSs375RjjIkBYqALDPRGksewSjsGG/eSZBBluTpskZ2cNromybAj9bKg1V70x/jSAu55cveQ/+ETg2SiTUnqvO+SYOfEQstUiG35K4X12xyifILEWr7rNv15ILRX3YVHnnJXpi/Qlb5cveCevpSIwfRb1n5VU8dhpnP+M346dikf9PW581qSPN2/nIiLFYNVXsMe5EtfCD/+IV/YK2OJL2Eo8twVScbqtdz2scp4sG2SEmKAGFg3DGw0SR7DD57kAs6Tox31fWJNbLyuSFoMolnXVg5xS61CWnq9Pvz7OYesgQRffvFFdz1hO3Sm/i1vxcPbtleSXMa1JMeX3TNPX3G7BkGXMYg5SJBBxNFaaa7qmX1GDQ8FqOtjq1eDZ3aG7RGoU9GpSCzu6dhFH0QukCPfNmyPclNfYR9s07FHO5ZtsGUoJfYO737vaffMa/WfhMPLfKhTxkiRZ/gFmaZPu8ltHJqgQxdLkhZigBggBhbHwEaT5HUDDkgiyGeKLHq/Azmp7iXV8lof9EoSJGOoCZC8p48jGTI+nwZZyJTtTclYuGav1KJ9EDToQQl9mpRrogb5NqUkiFq/1wOyKGMojzUpTMlL36QM2rSuST8a7cwkycGnGUmXOfK4gZ2wJ54r/VbspY11MZJ+reoY2ylShBaEF374VV9PmMsX/wRJ1nKQR2mRYKxIe5lU+6uKC9tdfFJm7Bg7YmA4GOiNJB88eNAdP358Lff7EsDDAbDMBUgyVinlPR4PM2fMy97yApIu9zwzpnuLKePH+BEDxAAw0BtJRgNDLvfv3++OHDlCIr8mP6hSrmDWrEwPGYu0jYNyWwzEPcliRbqtDsoTd8QAMUAMpDGw0SR53V/c2yTgY/sIth1sku/0NT3ArWNs5NYMaxvGOvpMnzYL48w38z0UDJAkD/QTcHX7gbFPsdyLmHj5aygA69MO7Hct4yBeINtLmyDbMsbWceqrHHtpm3U5MRADxAAxQAwQA8PBQG8k+fDhw+7MmTOD3srAleThAJGDAnNBDBADxAAxQAwQA0PCQG8keQwEdGtry21vbw+ayA8JLLSFgxcxQAwQA8QAMUAMbAoGNpokb0qS6ScHtBwM/NzP/BP33/93/5h/S47Bz/3MP+WD+pq8PJzTzyjD8ZgYGA8GeiPJhw4dcqdOneLgz8GfGBgJBv6Hn/1H7l+9l3/LjsHBn//H7CMj6SMkN+MhN8wVc9UFBnojyV0Y17cObrdgJ+obY2PST5K8mgcEkmSOQ2MaJ2gr8bpJGNhokjyGfdObBEb6utrBlySZJJl9cLV9kPFn/ImBYWGAJHmgn4BjRxlWR9mEfJAkkyRvAs7pI8dWYoAYyMVAbyR5DHuSuZJc31GKsxfd9cnE4TvBud8G1t94zq2XA9rwHeOr7sLprdHu40Rcu4xLTuyaZDRJPvfs991kMnGTH37Dffn9/82g9iv/zpn/3f397sS98X+ccL+7PSzb2u5pHtp2i6L4uLv10WvuN75+Pf6deOQv3C8URas+VxRn3R1PzvScePLH7o6PtdPRhFnerx/DGR/GhxjYGwZ6I8ljIKD8Wep88OT+5HOQ64/EkiTn56zt4EiSzJVkEOQTX/uOe09LUlyHt+K+v3Ikyf313brY8x7jTgwsjoGNJskETj5wckiyXzm6eH3iJpfPuZs6nGBlntaBJEt/hnSsSXLbFdFlynMlOb/vtsFYccfX3d1PXnN3/d5vtlo1bmqDJLmffDXFnfcZd2JgbxjojSSP4Rf3CJ588GSR5JPn3ZXdibt64bTbIknulGQsA6skyVxJ7ovM9qV3Gf2CbeTPE4wVY7VuGOiNJK9boMbgD1ZysYfYl5fP3WSStbAiK/YbX73gTm+l9wuuiiRrO71Pk8lsOwfuW37qe2EvcKjr/UGcFt0bXEwfCqyVc+se7Int1sS8KE6681d2o42+jnz4QK7lNYnRpvtSFscgyX/50iw2Zbz/z3/nPpXY9/s72591378+w5GX/7vH/9s971/+nX//vPtJZT/8Jfet/3G297iykixkJ5Md99d/8E/n2oc8Yu9LvZ85tBnqyxhMJtW2sWKubZS6dQykPi83ETEd0p7kHDJbFIX755/+Qdyv7Pcun3ji++6W29LjR5NeU2diH7THdpu9zqee3in31r/4cNo+9AGWJHnEADEgMbDRJHkM+6ZlsuqOLVIWiNZL7txN1ckhEN4Z0QQhqyOLKZKMdiVB0McpIlfrz5QkThSRDERT2J4gqtEnUR8vzJUkZbolxJKrs0vei3Unl+dirO006wnbqven21bEfcQZhBwkGOeyvj+GfJvYgyRHEjglwJLQ4Z4vQTzl/d/ZPuYuvXqxQmhlnZxjEEpJNMu2Xp6RdbT9xtW/q7xY6OtqUlvKXq2+fIiXEiVRlqQXPgV/ditteB9QHzZGOUXSZ9dnRBsPFnghctUk2RNY+ZKePpZ7iUFm5XaMuI+5hijXkWSvc/vz1+aIdnHfd+a2fWA7yP/8uQfjw3/QbW8RKYovuRenD1uTFx+OdXR/4TmJETFADFgYIElek0/AgQBaK6oy8SBPWi51HXVTJBn3fQkdbYiZrC+PUyTTum7ZBlukn4iRJpaWTmlL3TF0VtpJEHzoieRakGDc82WwJ0W8w/WoI5L9QKwRe8t/2YZ13JokT1dwQRRzCHCTTCS/DV+tgByIJvSC6DbZFMmrWNFFXRBk6AyEeLZCHeuqr36gvmw7XJvVhU55vQ1JLoo73WefeN5dunQp+feV33/HwmSwjsxamMG1QF7TX6+o0xtJdmLlOLYBMq3kIslW11HvSy+G/3RwJZkkCJhgSSzkYqA3knzgwAF39OjRhQfrXAf2IreOK8l+lVQSNh2fFAFrWpm0iKjWDWIGoqbvtzkv2zNIpEVoLaJq2WvJeZssnbm2WnFDHFJ5iATX8C/eM15+1PbLGOEeVt7D+WzFPcef1iR5+hk2jzlJDEEEFykDIZ2tuqZ0gCTLlWAvaxFVS4dFdFN190KSy5VtRaZLO8Un7N7+c/9oMONkHZmtwxBWeOUKs5Sv0wuSW27bSBBdrwvbLHQbWN1u2vIh7eExSRIxQAzkYKA3kjwGAjoGIp+TRMiAsMntDpqoeWIl7+tjvcoK3RbpxD2UIId7JcmRKBok0iK0Wh5x0HaASOqYWDrhU04Z6s9WfvW51qHtlfdhu86LPIf9sh1/vHPhaXfpeiDG8p7UX3fcliSXZK/jPcnWdgmT5AqSKb+TXE90q3unfUzlSnR93epqcHq7xYzgg4jL3OljT/LHRpKx8ju/LcPe8uAxV0eSy/vWPmdFmEHEdbs4J0km6akb33iP+FgEAxtNkhcJ2FjqSLIlyeIi5Mn7PGSS7O0LfgWCmFpF7Ysk4+HAk1cQYBlzjRnIYNVX3o/3jJVkKeePZ35+wp2/suMunPblbvmC3yfOX3G7xkOG1iHPFyHJksBir60ngnqFV8rVHfdBkr1Ob5Nc7QaBXZQkQ6ckvVIXfCz9MVaScd+XY9pu4ccV/9Kc/o4yCKxe5QW+mkgy5HyJleFyZVl8rxltp9qQOnhMQkQMEANdYIAk+Yb1BRKIslwdThHFJjB1TZJhR+plQau96I/4ugXsxj1PTh+6eN38VjPaxEos6kqCjWttygqxLX+lsH6bQ5RPkFjLd8ueQM6vuguPPOWu7ISvk5S+XL3gnr6UiMH0W9ae3Ok47JUke8IHoqz39UpSWHecWs3VdXK3W1hkONjpXzCsvpCXant+u0X4okfOg4Cuq/3w521IsoWDLq81kdkUGU5dh21NeiGHEkRZrg5jBbvtr//h6xZ8cW995zrghiVz3DUGeiPJXRtKffXg9+RoR32f2CKFkaAZRLMuxjnEDSuqdauoaMPrwyqcJmteRusCCb784ovuesJ26JSfiEN7pc7pz2zr9vZKkme6L7tnnr7idhtWgWMOEiQZvlsrzRV/BOHFgxDq+thaeQAm/H3Ugc62JNkTwP+iXrBLEU2LHFrXIqnVX4nw2yusr1s0tG/pA5EvYyBWeVO2a6KL+jkPAlE28Rm5sZJkSVQ9AS5XfWt+hKSOJPu+fYdYMS770/SnsWU75fVpW/LrFsCvVRbFKff0Tthm4z8P+PQnql/6serwWv1cw/gwPpuEgY0myev2gycgiSCfKbLoAR6IYXWPppbX+qC3JBcGwQNBs8iZ7lQga6mVZC8PmbK9KTEO1+yVWrSfIpfQ1wtJFoRV6y99Mb57XImnItYg0lJGx13KoE3rmow9Hja8LtTBfU+SQep0uzjXq6d620HqO8UWIa67FojpDJ96K0PuSrJvQ/sEG/VWiFySXOoU32ZGbFDKbR3wUcfJy+JTdWNaSS6xrD4ZF4hs2IYht0KAPGPPsCzlCnGpc/pLf1ImRYRLUv3ktbnP1iXlTz3tdqafgeMXLkjwMN6xJBZyMLDRJHkMLxfmJJEyobODJOeQdMZsfoDUK8kgeCyrv8QHgm6tJIMMW0Q5FcchkeR17Bf4VvJk8qJ7uKdfAl3HuNGn+TGSMdm8mPRGkvfv3++OHDkymE8bWeAmSV4vwPuV77qVaQsDvDbDAElylQynSC1WuS0iXHcvpY8keYbBPvoj9iTvPP2JQc9HffhOnf1ii/Fd//j2RpLHQEAPHjzojh8/zoFzDV5exPYRvYWAg1j+IEaSnEeSsS1DryRjWwe2UaRIsb5OkpyP0Tb9ufjSi+XPUXMvcj/xbZMLyjIHY8XARpPkISetbj8w9j6W+xqNvcFD9qtL2+T+W72fetF2QLZljK3jdVyx7oMkY/uBFUN5Te851kRyaOfYciF98MeaOOfYTZJMArHoeMV6xA4x0C8GSJLXYBWVnaTfTrIp8e2DJOeQxE2XIUlm/92UMYZ+Eutjw0BvJHlra8ttb29zKwNJODEwEgyQJOdtt+ia1JMkkziMjTjQXmJ2UzDQG0keQwAPHTrkTp06RRI3EhI3BkyN2caf/9l/5n7+Z/4J/5Ydg5/9ZxyDOAYRA8QAMTBADGw0SR7Dy4VjJl20nasNxAAxQAwQA8QAMTBWDPRGksew3YIkmR13rB2XdhO7xAAxQAwQA8RAvxjojSSPgYByu0W/4GLnZXyJAWKAGCAGiAFiYKwY2GiSPNak0W4OOF1goPyZ7g3+hGAXMaQO9sUUBsr+pX5uPiXL68QRMTBMDJAkD3Cj+FA6SznITyYO34LN/Taw/sZzbr1F/Ma3kicDIHuwBfEqv5s7ALusuCK3/Anv4QzMyAnwk9tv+uxv6/Arlohrbjyt/rLINeRlQqLMF9LIM0aLgd5I8hh+lnqRgW9T6+ROlkHuqrtwemspnQLEdNUkOdoxuezO3VQsxfdFsVgUZ93F6xPHyXs4BFnncij9LdcObf+QzldFkn0M8ONE/CXQ4fa1IWGVtgwPJ72R5DEkmz9LnQ/InMlyFeQrktMVr9gWJ8+7K7sTN4aV2ZxcjqH/rrONOTlaRn/LsWOd87BX3+L4NIKH5736yvr58yljNZ5YbTRJHsPLhUPpTDmT5SqIYpyEVk2Sz1501ycTN/QVo1XkaCgYHpMdQ+lvOXaMKa6rsJV9bjyEaBX4YJvDxgdJ8gMPDPpf4206EFaWsKfRlynShn8DQrZpu0LOZNnHZNDkU5Ukh20E8Mla1YU8ZGTZFIO6XOBfuql4ww+9xcGKWciN37Zx0p2/sjvbE17zIODzU/ElsQ+yKY+wx/shMTKZ2FtoIC/blnFHvP21T5y/4nYnExfiPMuVlPcxRqykzlRc63LS9z3teypG3o7c/MDmpjx5ObSv4wcdi5TaTp8DuZc32GVjQd9bBMd1NsNf3YdkLOQ9id/Sj5r+04Q5tJ3CYd199IGm8QX2ptqoiw3vDZtoMT/jzU9vJHkMq7RjsDG3c2GQlpNEGJxfmtsjqyezOIjX/Esw1Jnfb4t2JaHRx4tO4iCedT5F26/uuJ3d2eSNunLCwUQoJyvIyTayYz5dPdb+ynO0H9tW5BXxkzHCZOn14HqyPvYXq9x5HS+du6nyABhjpWyQ/sIe37aMk5X/Unbngju9NduDDdtnds+IfhnjclvKVbezs1s+wAX5Ga7QvswHcgSd0t5VHVs2lTl6tRqPGHORn5jLGtJmxdv7ivhIjOnjReIUbVLY0HZYfpd2AYeiPrCQg+OcPFqxRL3Q1qz/43qwLWBQ4rlyf7pVqg5ziHsqtogL+rvU74/r7As2zh4apR1aD8/HS7aYu3HmbqNJ8jqBtmmQhq8Y7PVgnrqOenqyxHVZQkdqIpGyTcdxQqwhEl5HlFMrndakb8Uo1m9op9Hehu0Wlj2l/cZeZpALHUcrB02Tr7QbNmi9FRkQBhUPK3ayHo5jPKdkKZ5P8wOMgAho+0sfVdted+o62l12qe1OtR/iNk/eUtehx8o17qFELOvyCdmmMtWevh7zqXJk+dMGx0324b6Fw5RNsU5RT5JT2JLXdd9B7DGOWv6jfV9adsv7/ti35x8ooFPf5/k4SRbzNu68kSSvyadZMGijBgsIAAAG2klEQVQ3DbJh4pqt3KEDYxIAecF1lHqyxHVZwoYuJm3oapowUhOk5Y81UaXqS79yji3dsp5lj78PP2XMUgRM5yDaLlbvZJv62GorV6bJP+iJNk1J1Ny5eiiQviJGMhbQK+VwbZUl4lG3xcLbJ4mWtLcpFzrXsi6Om3RArqmMOTJwZNmhcxHrK+Ks5WCHpRP3mkpgRI5TiENqrEjZ59uCvibMRR3TGAXfZl+ICefz4yr8gY1WO5BhOW4yxfytZ/56I8kHDhxwR48erfy7lyDqF0QY8OW/X/XE4ScoeV8fy8lH5itnYutyIgAJ0fZLm/xxnLzUBI1YSH/iNSGLdvY6eUFPyt7YtiIiVsxyyUVKp44Rzq22cA9lSiblH8jCHI4WIclTAq114byJkMKHZZWIVco+YBP3rTKFu2X2tzocWXZoecRBYz8Xx23zpQmpPtf6kAdruwVst3Ljr0nMlbGY4tofX37maXdlNxBjeU+378/RTirfVh1e63e+ZHwZ3xwM9EaScxpftcw6E3lMZH6glwNz04SSyok1WWrZLieCFCmbazPxr1T4XyHJCRKmJ3fdRs55k72WPV6vFbNccpHSmbIX8hIPWtayp7TT2E7iMeHxJeOnCcnc+YIrydrOoZ0jbjoeTeQp5ccy+xtwIfsK7ErZIa+nxpRcHKOt3BKx9rgDvmoxnRgjfHvwva4+7Jr56fcPe3Ic9hF7O8p4qAdg1CvbMfqPvM9jEjZiYJgY2GiSvE4v7lkdDBOAnPyayJylx1+Tk2JKBpNXzoQDO+Sb81KvZbu8j2NMknqVyKo/m+RmL5pBz15L+CMJo9Rp2ePvB5uq31duQy5y8gI7UrHCfV+mcqj9S+nS1+fOa0ly/d5Raac89jEoV/1qSIqU7+vYil0ql0025OTVai+lF/mz+pvOEXRAv1lnmsfL5+4vv8Bi9fmU7zm+wQarjPb6fJfkc37Pt6wX5cV/kHC/7h5kUIYYXnbnHr7ork+xVvpy+Rn39JXdymIE6qBMxQL3fRlkZls45D0eD5NAMS/rnxeS5DX5BJwfYHcunHZbxYwAYmKUxC1OCupFt6bOnjOxYVK1Jkyt3+vzxEavvEk5TBpSX7B/9sWO6I+aAC1SmjNRyfbbHFux1vV1DOGfj4H0MWWnru/1I+b6IcHr0F+38PKWDmkn9El7ynbUSliMu8ARYl4S1gW2W8h25IOdtE8fw46yTWGLluv63MdR9iuv38obYmIRzTqbmvLk66ZyZen1+nyM/J+2u9Sl81uS4KvupRdfdbviyxzQXY27vRfXioevn+Mb2kmVIKzPPH3F7TY8HMFW3UegG323CXOIt48h+gfqpuLq22hqX8p4PXKLB2xkuf5kjDkeZo57I8mHDx92Z86cGfSe5HVbSZYTYdNgGyawSZw4LXmtz8vgz5pwMIlgAqnr9JhcmsgDdMZ2FRFKTUCRnIgJFLLQJUvLnzr79T34YxEQyOr2Q5vhX7YyZm3Jhdbr/ZL60L4vEc+29y3/EGPEEZN7SYIWJMmljdPPiUEvyhSJgW1oX/rb17EV8zosW31Jy1sy0Xf1EJiTS+n7LEY2ofWyckyAbeGaXSfqFH1MttkWx7Ju07HEntXnrPwglr7UWJL6UnKQkTizrmnbm/oc5CHn27d8ghzLYZIp5mU989IbSR4DAd23b5/zdhLc6wlundeSvCmS7WUwOe2VKOv2hnoe4mATn6HaXGfXjKisj091/g7lHkgyCV16/ARZx0NHXe6I43Qc6+LGe4xbnxjYaJLcZ2Cpe1gdN05A1oocfgjBuLeOeVy3hwKsgJKsLa/PRfK3IX1m0XGgDTYhm/ovz6I2sN7y+gVjvX6x7o0kHzx40B0/fpyrtGvyHeaxd/44qRsryZs4OWEVUP/beUx5Rt5yVunG5NcYbE39V2YMti/LRvSxJtILObmNY1k2sp31I3XMabc57Y0kjyFR+/fvd0eOHBkkka/bn1jZM8eVnFb5s+IqJycQLxlj63gdiJmfnF996Zy7X/ys9Bj6bdc24gHKyrO+NuaHir3GDf+N8THpCv/r3N/KB4nEfu295oL1uyVCjCfjmcLARpPkMeybTiWO19mpiQFigBggBogBYoAY6A8DJMlr8gk4dpL+Ogljy9gSA8QAMUAMEAObh4HeSPKhQ4fcqVOnWv0rnADcPAAy58w5MUAMEAPEADFADAwRA72RZG5lIOCHCHjaRFwSA8QAMUAMEAPEQA4GSJL59Qmu9hMDxAAxQAwQA8QAMUAMKAz0RpK53YJPaTlPaZQhTogBYoAYIAaIAWJgiBjojSQP0VnaxE5IDBADxAAxQAwQA8QAMZCDgf8fehB6eETy8gEAAAAASUVORK5CYII=;" vertex="1" parent="1">
                    <mxGeometry x="40" y="348.64" width="346.89" height="131.36" as="geometry"/>
                </mxCell>
                <mxCell id="26" value="&lt;ul&gt;&lt;li&gt;如何觸發 Load 事件&lt;/li&gt;&lt;li&gt;如何動態設定參數&lt;/li&gt;&lt;/ul&gt;" style="text;strokeColor=#b46504;fillColor=#fad7ac;html=1;whiteSpace=wrap;verticalAlign=middle;overflow=hidden;fontColor=#0000FF;spacing=0;" vertex="1" parent="1">
                    <mxGeometry x="570" y="490" width="180" height="70" as="geometry"/>
                </mxCell>
            </root>
        </mxGraphModel>
    </diagram>
</mxfile>